<?xml version="1.0" standalone="no"?>
<!DOCTYPE svg PUBLIC "-//W3C//DTD SVG 20010904//EN"
 "http://www.w3.org/TR/2001/REC-SVG-20010904/DTD/svg10.dtd">
<svg version="1.0" xmlns="http://www.w3.org/2000/svg"
 width="8192.000000pt" height="8192.000000pt" viewBox="0 0 8192.000000 8192.000000"
 preserveAspectRatio="xMidYMid meet">
<metadata>
Created by potrace 1.11, written by Peter Selinger 2001-2013
</metadata>
<g transform="translate(0.000000,8192.000000) scale(0.100000,-0.100000)"
fill="#000000" stroke="none">
<path d="M29374 61122 c-10 -2 -26 -6 -34 -9 -8 -4 -87 -8 -175 -10 -333 -9
-410 -14 -417 -28 -6 -9 -30 -13 -88 -11 -44 1 -90 -3 -103 -7 -12 -5 -55 -9
-96 -8 -41 0 -79 -3 -85 -8 -6 -5 -36 -11 -66 -14 -30 -3 -66 -9 -80 -12 -14
-4 -34 -8 -45 -9 -11 -2 -20 -4 -20 -5 0 -1 -20 -4 -45 -6 -25 -3 -56 -7 -70
-10 -14 -3 -65 -8 -113 -10 -48 -3 -95 -8 -105 -13 -9 -4 -41 -7 -69 -7 -29 1
-53 -3 -53 -7 0 -4 -22 -8 -50 -8 -37 0 -48 -3 -44 -13 3 -10 -9 -13 -51 -12
-30 1 -55 -2 -55 -7 0 -4 -22 -8 -50 -8 -27 0 -50 -4 -50 -9 0 -5 -15 -9 -34
-9 -19 0 -40 -3 -46 -7 -6 -4 -27 -9 -47 -11 -20 -3 -42 -8 -47 -13 -6 -4 -29
-11 -51 -15 -68 -12 -78 -14 -160 -35 -44 -12 -91 -24 -105 -27 -14 -3 -59
-14 -100 -25 -41 -11 -86 -22 -100 -25 -14 -3 -58 -14 -98 -25 -40 -11 -83
-22 -94 -24 -11 -3 -46 -12 -77 -21 -31 -9 -65 -18 -75 -20 -11 -2 -60 -15
-110 -29 -50 -15 -116 -33 -146 -42 -30 -8 -63 -19 -72 -24 -10 -5 -27 -9 -37
-9 -11 0 -23 -4 -26 -10 -3 -5 -17 -10 -30 -10 -13 0 -26 -4 -30 -10 -3 -5
-12 -7 -19 -4 -8 3 -17 1 -21 -5 -3 -6 -19 -11 -36 -11 -20 0 -29 -5 -29 -16
0 -12 -7 -15 -30 -12 -16 2 -31 1 -32 -4 -2 -5 -10 -10 -18 -12 -41 -8 -70
-19 -70 -27 0 -4 -9 -6 -20 -4 -11 2 -26 -3 -34 -11 -8 -8 -24 -14 -35 -14
-11 0 -23 -5 -26 -11 -4 -5 -12 -8 -18 -6 -7 2 -18 -2 -25 -9 -7 -7 -19 -11
-26 -8 -8 3 -17 1 -21 -5 -3 -6 -17 -11 -30 -11 -12 0 -26 -7 -29 -16 -3 -8
-10 -13 -15 -9 -5 3 -12 1 -16 -5 -3 -5 -20 -10 -36 -10 -18 0 -28 -4 -24 -10
3 -5 -3 -10 -14 -10 -11 0 -23 -5 -26 -10 -4 -6 -15 -8 -26 -5 -12 4 -21 1
-25 -9 -3 -9 -14 -16 -24 -16 -11 0 -22 -5 -25 -10 -4 -6 -11 -8 -16 -5 -5 4
-9 1 -9 -4 0 -6 -13 -11 -30 -11 -16 0 -30 -4 -30 -10 0 -5 -5 -10 -11 -10 -6
0 -17 -7 -26 -15 -8 -8 -19 -13 -24 -10 -5 4 -9 2 -9 -2 0 -5 -10 -9 -22 -10
-11 -1 -24 -7 -28 -14 -4 -6 -12 -9 -18 -5 -6 3 -13 2 -17 -4 -3 -5 -15 -10
-27 -10 -13 0 -18 -5 -15 -14 5 -13 -30 -26 -75 -27 -10 0 -18 -4 -18 -10 0
-5 -9 -9 -20 -9 -11 0 -20 -4 -20 -10 0 -5 -9 -10 -20 -10 -11 0 -20 -4 -20
-10 0 -5 -7 -10 -15 -10 -8 0 -15 -4 -15 -9 0 -5 -13 -11 -29 -14 -16 -4 -35
-12 -42 -20 -8 -8 -21 -12 -31 -9 -10 2 -18 0 -18 -5 0 -12 -50 -37 -67 -34
-7 1 -13 -3 -13 -9 0 -5 -7 -10 -15 -10 -8 0 -15 -4 -15 -9 0 -6 -9 -8 -21 -6
-16 3 -19 0 -14 -13 3 -9 3 -13 -1 -10 -3 4 -23 -2 -42 -13 -20 -10 -42 -19
-49 -19 -7 0 -13 -4 -13 -10 0 -5 -9 -10 -20 -10 -10 0 -23 -7 -28 -16 -5 -9
-11 -14 -13 -13 -4 3 -43 -18 -161 -88 -81 -48 -193 -103 -210 -103 -10 0 -18
-7 -18 -15 0 -8 -9 -15 -20 -15 -11 0 -20 5 -20 12 0 6 -3 9 -6 6 -3 -3 -21
-2 -41 4 -19 5 -44 12 -54 14 -11 2 -29 7 -41 10 -13 3 -35 8 -50 11 -16 3
-28 10 -28 15 0 5 -8 8 -18 6 -11 -2 -26 3 -35 10 -8 7 -29 14 -46 14 -17 1
-31 4 -31 8 0 4 -15 7 -32 8 -18 0 -34 5 -35 9 -2 5 -17 8 -33 7 -17 -1 -30 2
-30 7 0 5 -15 9 -34 9 -19 0 -36 5 -38 12 -2 6 -18 12 -36 13 -17 1 -35 4 -38
8 -4 4 -22 7 -40 7 -18 0 -36 5 -39 10 -3 6 -22 10 -41 10 -19 0 -34 4 -34 9
0 5 -18 8 -40 7 -23 -1 -41 3 -44 10 -2 6 -24 15 -48 18 -68 10 -81 13 -107
23 -14 5 -35 9 -48 7 -13 -1 -23 2 -23 7 0 5 -17 9 -38 9 -21 0 -43 5 -49 11
-6 6 -24 11 -41 13 -17 1 -35 5 -38 9 -4 4 -25 7 -46 7 -21 0 -38 4 -38 9 0 5
-17 8 -37 8 -21 -1 -43 3 -50 9 -7 6 -26 10 -42 8 -21 -2 -31 1 -31 9 0 8 -16
14 -42 16 -23 1 -47 6 -53 10 -5 5 -27 7 -47 6 -21 -2 -38 1 -38 6 0 5 -20 9
-45 9 -25 0 -45 5 -45 10 0 6 -22 10 -50 10 -33 0 -50 4 -50 13 0 8 -14 11
-45 9 -28 -3 -45 0 -45 7 0 6 -18 11 -43 11 -24 0 -47 3 -51 8 -4 4 -20 7 -34
8 -15 0 -40 4 -57 8 -16 5 -46 10 -65 11 -50 3 -52 4 -44 16 4 7 -8 10 -38 8
-24 -2 -50 1 -58 6 -8 5 -33 11 -55 12 -22 2 -69 7 -105 13 -36 6 -81 12 -100
14 -19 2 -51 7 -70 10 -44 7 -231 34 -285 41 -22 2 -51 7 -65 10 -14 3 -45 7
-70 10 -25 3 -67 9 -95 15 -27 5 -66 12 -85 14 -19 3 -46 7 -60 10 -14 3 -54
10 -90 16 -36 6 -77 15 -91 19 -14 4 -49 7 -77 5 -39 -1 -52 1 -52 12 0 11
-17 14 -75 14 -41 0 -75 4 -75 9 0 5 -32 8 -71 7 -38 -1 -74 3 -79 9 -4 5 -38
9 -74 8 -36 -1 -66 3 -66 8 0 5 -38 9 -83 9 -46 0 -87 3 -91 8 -4 4 -16 8 -27
8 -10 1 -20 2 -21 4 -2 1 -30 4 -63 6 -177 12 -225 17 -225 24 0 5 -37 8 -82
7 -46 -1 -92 2 -104 8 -11 6 -59 9 -107 8 -66 -2 -86 1 -91 12 -4 11 -26 14
-93 13 -48 0 -109 2 -134 6 -25 4 -90 9 -145 11 -54 1 -99 4 -99 5 0 1 -52 4
-115 7 -63 3 -116 9 -118 14 -2 4 -67 8 -144 8 -78 1 -144 4 -147 9 -7 9 -50
12 -221 17 -341 10 -526 18 -530 24 -3 4 -134 7 -293 6 -158 0 -287 2 -287 5
0 3 -8 6 -17 7 -16 2 -14943 5 -15018 4 l-30 -1 0 -20172 c0 -11095 3 -20177
7 -20183 4 -7 2462 -10 7345 -9 4036 0 7343 2 7348 4 6 1 13 2 18 0 8 -2 96
-2 100 0 5 3 549 10 832 11 165 0 305 4 310 9 15 13 347 30 628 32 86 1 157 5
157 10 0 4 63 8 140 8 77 0 140 4 140 8 0 5 28 9 63 9 34 0 107 4 162 8 55 5
137 8 182 8 64 0 80 3 76 14 -4 10 17 13 106 13 61 0 111 3 111 8 0 4 26 8 58
9 31 0 71 4 87 7 57 12 147 27 193 32 45 4 81 10 92 14 3 1 8 2 13 1 4 -1 60
6 125 14 64 8 126 15 137 15 11 0 38 2 60 4 22 3 67 7 100 10 87 7 197 18 219
22 11 2 53 6 95 9 68 5 106 10 121 15 3 1 21 2 40 2 19 -1 51 3 70 8 19 5 58
10 85 11 28 1 54 5 60 8 5 3 23 6 40 8 37 3 65 8 85 16 8 3 38 8 65 12 28 3
59 7 70 9 19 4 52 10 100 20 11 2 52 7 90 11 39 4 79 9 90 11 11 3 47 7 80 10
32 2 62 8 65 13 3 5 28 10 55 12 28 1 55 5 60 9 6 4 30 10 55 14 25 4 54 8 65
11 11 2 38 6 59 10 21 3 57 10 80 16 23 6 57 12 76 13 19 2 42 5 50 9 8 3 33
8 55 11 22 3 65 10 95 16 30 5 73 12 95 14 21 2 41 8 43 15 2 6 24 11 48 11
24 0 44 4 44 9 0 6 12 9 28 7 15 -1 38 2 52 7 14 5 40 9 57 9 19 0 30 4 27 10
-4 6 9 9 34 7 25 -2 45 2 54 12 9 8 31 14 51 14 20 -1 34 2 31 7 -3 4 7 8 22
8 29 0 63 10 149 41 93 35 227 55 250 38 6 -5 25 -11 43 -14 38 -6 157 -53
260 -101 41 -19 80 -34 88 -34 8 0 14 -4 14 -10 0 -5 8 -10 18 -10 9 0 26 -7
36 -15 10 -8 22 -12 27 -10 4 3 10 1 14 -5 3 -5 17 -10 31 -10 13 0 24 -4 24
-10 0 -5 9 -10 20 -10 11 0 20 -4 20 -9 0 -4 12 -7 26 -5 15 1 28 -3 31 -12 3
-8 16 -14 29 -14 13 0 24 -4 24 -9 0 -6 8 -9 18 -9 23 1 116 -32 123 -44 4 -6
18 -10 33 -10 14 0 26 -4 26 -9 0 -5 14 -9 30 -9 17 0 30 -5 30 -11 0 -6 9 -9
20 -6 11 3 23 1 26 -4 3 -5 16 -9 30 -9 13 0 24 -4 24 -10 0 -5 11 -10 24 -10
13 0 26 -4 28 -10 2 -5 15 -11 31 -12 15 -1 27 -6 27 -10 0 -4 8 -8 17 -8 14
0 50 -10 103 -28 8 -3 25 -5 38 -5 12 0 22 -6 22 -13 0 -9 11 -14 30 -14 17 0
30 -4 30 -9 0 -6 9 -8 20 -6 11 2 22 0 25 -6 4 -5 15 -9 26 -9 10 0 27 -4 37
-9 9 -5 37 -14 62 -21 25 -7 53 -16 62 -21 10 -5 27 -9 37 -9 11 0 22 -4 26
-9 3 -6 13 -10 23 -10 45 -2 102 -14 102 -22 0 -8 51 -25 97 -32 12 -2 26 -6
29 -10 4 -4 17 -7 29 -7 12 0 25 -3 29 -7 4 -4 22 -8 39 -9 17 -1 33 -6 35
-13 2 -6 22 -11 43 -11 24 0 38 -4 34 -10 -4 -6 6 -10 24 -10 16 0 32 -4 35
-9 4 -5 20 -7 36 -5 17 3 30 1 30 -5 0 -6 18 -11 40 -11 26 0 40 -4 40 -13 0
-8 12 -13 33 -12 17 0 35 -4 39 -9 3 -5 22 -9 42 -8 20 1 36 -3 36 -8 0 -6 16
-10 35 -10 19 0 35 -4 35 -8 0 -5 18 -8 40 -7 24 1 41 -3 44 -12 3 -8 21 -13
46 -13 22 0 40 -4 40 -9 0 -6 9 -8 19 -6 11 2 40 -3 64 -10 25 -7 48 -11 51
-8 3 4 16 1 29 -5 12 -6 40 -13 62 -17 22 -4 49 -8 60 -10 11 -2 38 -6 60 -10
22 -4 67 -13 100 -20 33 -8 80 -17 105 -20 25 -4 86 -16 135 -26 50 -11 101
-22 115 -24 14 -2 50 -9 80 -15 30 -7 77 -13 104 -15 27 -2 52 -9 57 -16 4 -8
27 -12 58 -12 29 1 49 -3 46 -8 -4 -5 24 -9 64 -9 39 0 71 -4 71 -8 0 -5 26
-10 58 -11 111 -3 207 -13 218 -22 7 -5 43 -12 80 -14 38 -3 70 -8 71 -12 2
-5 39 -7 83 -6 48 2 80 -1 80 -7 0 -6 37 -10 90 -10 50 0 90 -4 90 -9 0 -4 46
-8 103 -9 56 0 125 -2 152 -5 28 -3 93 -9 145 -12 52 -4 100 -11 105 -15 6 -5
105 -9 220 -8 116 0 230 -3 255 -7 49 -8 583 -8 695 0 83 5 847 5 1195 -1 135
-2 6849 -5 14920 -6 l14675 -2 5 259 5 260 70 0 70 1 3 12137 2 12137 2575 0
c2053 0 2575 3 2576 13 1 6 2 528 3 1159 l1 1147 -2573 0 c-1416 0 -2575 1
-2577 3 -2 2 -6 613 -8 1358 -3 745 -8 1425 -12 1510 -8 167 -9 425 -2 530 3
36 8 112 12 170 4 58 11 110 15 115 4 6 7 122 6 258 -1 137 3 258 8 270 5 12
11 89 13 172 2 82 8 154 12 160 4 5 8 63 8 127 1 64 5 123 9 130 4 7 9 55 10
108 2 122 17 286 31 340 7 28 14 84 20 158 3 39 9 72 13 72 5 0 8 32 8 71 0
39 4 74 9 78 5 3 8 32 7 64 -1 45 2 57 12 53 11 -4 14 9 14 59 0 36 3 65 8 65
4 0 8 19 9 43 3 72 15 157 24 163 5 3 9 29 9 59 0 30 4 56 9 60 6 3 9 13 9 23
-1 23 10 92 33 215 11 56 22 118 24 137 3 19 10 51 15 70 5 19 11 46 14 60 8
41 45 170 73 255 15 44 26 85 25 92 -1 6 2 14 8 18 5 3 10 14 10 24 0 10 7 32
16 49 8 18 13 36 10 41 -3 5 1 14 9 21 7 6 12 17 9 25 -3 7 -1 16 5 20 6 3 11
19 11 35 0 16 4 31 9 34 5 4 8 18 6 32 -1 15 3 28 11 31 8 3 14 16 14 29 0 13
4 24 9 24 5 0 9 12 9 27 0 15 4 29 9 30 6 2 9 17 7 34 -2 18 0 28 6 24 6 -3
10 3 10 14 0 34 1 36 15 44 8 4 11 15 8 24 -4 11 -3 14 5 9 8 -5 12 2 12 22 0
16 3 32 7 36 4 3 8 16 10 28 2 12 8 27 14 34 6 7 8 18 5 23 -4 5 -1 13 6 18
17 11 38 71 31 89 -3 8 0 14 6 14 6 0 11 7 11 15 0 8 5 15 10 15 6 0 10 14 10
30 0 17 5 30 10 30 6 0 10 7 10 15 0 8 5 15 10 15 6 0 10 14 10 30 0 17 5 30
10 30 6 0 9 3 9 8 -4 18 14 71 22 66 5 -3 11 1 13 8 3 11 12 36 21 58 1 3 6
19 10 37 4 17 16 41 26 52 11 11 19 27 19 36 0 8 4 15 9 15 5 0 12 12 17 28 4
15 8 29 10 32 1 3 5 15 9 27 4 12 13 24 20 27 7 2 16 18 20 35 4 17 11 31 16
31 5 0 9 9 9 19 0 11 5 23 10 26 6 4 8 11 5 16 -4 5 1 12 9 15 9 3 16 15 16
25 0 10 5 19 10 19 6 0 10 6 10 14 0 7 7 19 15 26 8 7 15 21 15 31 0 11 7 19
15 19 9 0 12 6 9 15 -4 8 -1 15 5 15 6 0 11 9 11 21 0 11 4 18 9 15 8 -5 26
40 23 57 -1 4 5 7 13 7 8 0 15 6 15 14 0 7 7 19 15 26 8 7 15 19 15 27 0 7 9
23 20 35 11 12 20 28 20 35 0 7 5 13 10 13 6 0 10 6 10 14 0 7 7 19 15 26 8 7
15 21 15 31 0 11 6 19 13 19 7 0 21 18 31 40 10 24 22 37 28 33 7 -4 9 -1 6 8
-3 8 7 27 23 43 16 16 29 35 29 43 0 7 5 13 10 13 6 0 10 7 10 15 0 8 4 15 9
15 4 0 21 19 37 43 28 40 49 68 87 108 9 10 17 26 17 34 0 8 4 14 9 13 5 -2 9
1 9 5 1 5 9 16 19 25 11 9 27 28 36 41 9 14 43 52 76 87 33 34 58 64 55 66 -2
3 4 12 14 21 9 9 29 28 45 42 15 14 27 30 27 35 0 6 4 10 10 10 12 0 50 32 50
42 0 10 38 48 48 48 4 0 14 9 22 21 26 37 45 55 63 62 9 3 17 12 17 19 0 7 14
22 30 33 16 11 30 23 30 28 0 4 4 7 10 7 5 0 27 16 47 35 20 19 41 35 45 35 4
0 8 7 8 15 0 9 10 19 23 24 13 5 43 28 66 50 23 23 49 41 57 41 8 0 14 5 14
10 0 6 7 10 17 10 9 0 13 3 10 7 -10 9 13 33 31 33 8 0 28 14 44 30 15 17 33
30 38 30 6 0 10 5 10 11 0 5 4 8 8 5 5 -3 15 4 22 15 8 10 22 19 32 19 10 0
17 6 16 13 -2 6 3 11 10 9 6 -1 12 2 12 7 0 5 8 12 18 15 28 10 61 32 79 52
10 11 25 19 33 19 8 0 21 7 28 17 7 10 20 18 28 18 8 0 14 5 14 10 0 6 8 10
18 10 9 0 23 9 30 20 7 12 18 20 25 19 22 -2 57 13 57 26 0 7 8 16 18 21 9 4
19 8 22 9 3 2 15 6 28 10 12 4 22 12 22 17 0 6 9 8 20 5 12 -3 20 0 20 7 0 6
20 20 45 31 25 11 45 23 45 28 0 4 12 7 26 7 14 0 23 4 19 10 -3 5 13 14 35
21 22 7 40 16 40 21 0 5 4 7 9 4 5 -3 14 1 21 8 6 8 20 13 31 11 11 -2 22 2
26 10 3 8 11 15 19 15 8 0 14 5 14 11 0 6 7 9 15 6 8 -4 17 -2 20 3 4 6 15 10
26 10 10 0 19 5 19 10 0 6 11 10 25 10 14 0 25 5 25 10 0 6 9 10 20 10 11 0
20 5 20 10 0 6 9 10 20 10 11 0 20 4 20 9 0 5 8 8 18 7 9 -2 24 1 32 5 8 4 28
10 43 14 15 3 25 9 22 14 -6 10 41 25 68 22 9 -1 17 3 17 8 0 6 14 11 30 11
17 0 30 4 30 9 0 9 43 20 88 23 12 1 22 8 22 15 0 8 12 13 30 13 17 0 30 4 30
9 0 6 9 8 20 6 11 -2 22 0 25 6 4 5 19 9 36 9 16 0 29 4 29 8 0 4 14 9 32 10
18 2 35 8 39 14 4 6 21 11 38 10 17 0 29 4 26 9 -4 5 10 9 29 9 20 0 36 3 36
8 0 4 15 8 33 10 78 6 117 15 117 27 0 9 11 13 33 11 17 -1 41 2 52 8 11 5 34
10 50 11 17 1 37 4 45 7 14 6 57 14 125 24 17 2 41 8 55 13 44 15 151 38 220
47 25 3 56 7 70 9 14 2 68 6 120 10 52 3 106 9 120 12 14 4 50 7 80 8 30 1 78
5 105 9 28 4 111 9 185 11 128 3 173 7 265 19 212 28 531 23 820 -13 156 -19
178 -21 275 -25 52 -2 142 -10 200 -19 58 -9 143 -19 190 -22 155 -10 166 -12
335 -51 11 -3 29 -7 40 -9 11 -2 45 -8 75 -15 30 -6 72 -12 93 -15 21 -2 48
-7 60 -11 12 -4 36 -6 53 -5 18 1 38 -4 47 -13 10 -10 33 -16 61 -16 25 0 46
-4 46 -9 0 -5 12 -8 26 -6 14 1 38 -1 53 -6 14 -4 58 -13 96 -19 39 -6 81 -15
95 -20 14 -5 39 -11 55 -14 17 -2 53 -9 80 -15 28 -6 64 -12 80 -15 33 -4 47
-7 145 -30 36 -8 81 -18 100 -21 19 -3 60 -12 91 -20 30 -8 66 -17 80 -19 13
-2 25 -5 27 -7 1 -1 7 -3 12 -4 6 -1 11 -3 13 -5 1 -1 11 -3 22 -4 31 -5 216
-60 435 -131 3 -1 24 -5 48 -10 23 -4 42 -11 42 -15 0 -4 26 -13 58 -20 31 -7
61 -17 66 -22 6 -4 23 -8 38 -8 15 0 28 -4 28 -8 0 -4 8 -8 18 -9 14 -1 41 -9
162 -51 8 -3 22 -4 32 -3 9 1 19 -3 23 -9 3 -5 16 -10 29 -10 12 0 28 -6 34
-12 7 -7 16 -13 20 -14 17 -1 78 -17 87 -23 6 -3 12 -6 15 -7 59 -10 89 -19
105 -30 11 -8 29 -14 41 -14 11 0 24 -3 28 -7 4 -5 11 -8 14 -9 22 -2 69 -17
84 -25 10 -5 26 -9 36 -9 10 0 22 -4 28 -8 5 -5 29 -14 54 -21 25 -7 54 -17
65 -21 11 -5 67 -23 125 -41 58 -17 110 -34 116 -36 9 -3 12 336 12 1304 0
719 -2 1316 -4 1326 -3 9 -15 17 -28 17 -12 0 -27 5 -34 12 -6 6 -20 13 -29
14 -26 3 -117 37 -207 79 -43 19 -87 37 -98 38 -11 2 -23 9 -27 15 -4 7 -19
13 -34 14 -15 1 -27 5 -27 9 0 9 -39 21 -67 21 -13 1 -23 5 -23 9 0 5 -13 9
-30 9 -21 0 -30 5 -30 16 0 8 -4 13 -9 9 -5 -3 -12 -1 -16 5 -3 5 -19 10 -36
10 -16 0 -29 5 -29 10 0 6 -13 10 -29 10 -17 0 -33 5 -36 10 -4 6 -11 8 -16 5
-5 -4 -12 1 -15 9 -3 9 -17 16 -30 16 -13 0 -24 5 -24 11 0 6 -8 9 -17 7 -10
-2 -37 4 -61 14 -24 10 -55 18 -68 18 -13 0 -23 5 -22 12 2 7 -1 13 -7 13 -44
6 -85 19 -85 28 0 6 -3 8 -6 4 -3 -3 -25 0 -49 8 -24 7 -46 10 -50 7 -3 -3
-11 2 -18 12 -7 9 -22 18 -35 19 -12 0 -22 5 -22 10 0 5 -7 7 -15 4 -8 -4 -17
-2 -20 3 -4 6 -22 10 -41 10 -19 0 -34 5 -34 10 0 6 -13 10 -30 10 -16 0 -30
5 -30 10 0 6 -11 10 -25 10 -14 0 -25 5 -25 10 0 6 -13 10 -30 10 -16 0 -30 4
-30 10 0 5 -10 8 -22 6 -13 -2 -32 1 -43 7 -11 6 -28 10 -38 8 -9 -1 -20 4
-23 12 -3 8 -15 14 -27 13 -12 -1 -25 2 -28 7 -4 5 -19 11 -35 13 -73 10 -104
17 -104 24 0 5 -11 7 -25 5 -14 -1 -25 2 -25 6 0 5 -15 9 -34 9 -22 0 -36 6
-40 16 -4 10 -14 14 -25 11 -11 -3 -28 0 -38 7 -10 6 -33 11 -50 11 -18 0 -33
3 -33 7 0 4 -16 8 -35 8 -19 0 -35 5 -35 11 0 6 -6 9 -12 6 -7 -2 -26 1 -43 7
-16 7 -57 18 -90 25 -33 8 -75 17 -93 22 -19 4 -40 5 -48 2 -8 -3 -14 0 -14 6
0 6 -12 11 -27 11 -16 0 -46 7 -68 14 -22 8 -61 17 -88 20 -26 4 -59 11 -73
16 -14 6 -38 10 -53 10 -15 0 -31 3 -35 8 -4 4 -20 8 -34 8 -15 1 -40 6 -55
13 -16 6 -42 11 -58 11 -16 0 -29 4 -29 9 0 5 -17 8 -37 7 -21 -2 -47 2 -57 7
-11 5 -39 9 -62 9 -24 -1 -46 3 -49 8 -4 6 -30 10 -60 10 -33 0 -55 5 -57 12
-3 7 -27 14 -54 15 -135 10 -184 15 -184 23 0 4 -34 7 -75 6 -42 0 -76 3 -78
9 -2 5 -35 10 -73 11 -92 2 -96 2 -89 14 4 6 -31 10 -97 11 -57 1 -121 3 -143
5 -22 1 -91 5 -153 8 -63 3 -118 9 -124 12 -15 10 -894 8 -909 -2 -8 -5 -61
-10 -119 -11 -295 -8 -400 -15 -400 -28 0 -9 -22 -12 -81 -11 -44 1 -83 -2
-85 -6 -3 -4 -30 -8 -60 -8 -31 0 -63 -4 -72 -9 -9 -5 -44 -11 -77 -14 -56 -6
-76 -9 -157 -23 -18 -3 -55 -8 -83 -11 -27 -3 -55 -10 -61 -14 -6 -5 -30 -8
-52 -6 -23 2 -43 -1 -45 -6 -1 -5 -26 -10 -54 -11 -28 0 -55 -4 -59 -8 -4 -5
-26 -8 -50 -8 -27 0 -44 -5 -47 -14 -4 -9 -17 -13 -41 -11 -20 2 -38 0 -41 -6
-4 -5 -21 -9 -40 -9 -19 0 -37 -5 -40 -10 -4 -6 -12 -10 -18 -8 -7 1 -31 -2
-54 -6 -24 -4 -45 -7 -48 -7 -3 1 -18 -5 -33 -12 -26 -14 -98 -31 -105 -25 -2
2 -11 -3 -20 -11 -10 -7 -17 -11 -17 -8 0 2 -57 -13 -127 -35 -71 -21 -137
-41 -147 -43 -11 -3 -49 -14 -85 -26 -88 -28 -90 -28 -99 -30 -4 -1 -29 -10
-57 -21 -27 -11 -57 -21 -65 -23 -18 -4 -183 -61 -300 -104 -47 -18 -89 -33
-95 -35 -19 -6 -50 -18 -90 -34 -21 -10 -42 -16 -45 -15 -3 0 -16 -5 -30 -13
-14 -7 -72 -33 -130 -57 -58 -25 -139 -60 -180 -78 -122 -54 -444 -219 -452
-232 -4 -7 -8 -8 -8 -4 0 5 -13 -1 -29 -12 -16 -12 -31 -21 -34 -21 -3 0 -34
-18 -68 -40 -35 -22 -77 -47 -94 -56 -55 -31 -436 -278 -548 -356 -45 -32 -90
-63 -100 -70 -90 -62 -326 -234 -377 -275 -8 -7 -60 -47 -115 -90 -55 -43
-111 -88 -125 -99 -14 -12 -68 -57 -120 -100 -52 -43 -106 -88 -120 -101 -14
-13 -54 -49 -90 -81 -210 -186 -514 -491 -725 -727 -38 -43 -76 -84 -82 -91
-7 -7 -13 -15 -13 -17 0 -3 -16 -22 -35 -41 -19 -20 -35 -40 -35 -45 0 -5 -18
-27 -39 -48 -22 -21 -40 -42 -41 -48 -6 -23 -13 -35 -19 -30 -9 5 -51 -49 -51
-65 0 -5 -5 -10 -10 -10 -6 0 -9 -6 -8 -12 2 -7 -2 -12 -8 -11 -6 1 -17 -10
-25 -25 -8 -15 -18 -30 -24 -34 -5 -4 -7 -8 -3 -8 3 0 -6 -13 -20 -29 -64 -70
-73 -82 -67 -91 3 -6 -1 -10 -9 -10 -9 0 -16 -7 -16 -15 0 -8 -4 -15 -10 -15
-5 0 -12 -11 -16 -25 -3 -14 -10 -22 -15 -19 -5 3 -9 -1 -9 -8 0 -7 -12 -26
-26 -43 -15 -16 -31 -42 -36 -57 -6 -16 -14 -28 -19 -28 -5 0 -14 -11 -19 -25
-5 -14 -14 -25 -20 -25 -5 0 -10 -8 -10 -18 0 -10 -9 -24 -20 -32 -11 -8 -20
-21 -20 -29 0 -7 -7 -19 -14 -25 -8 -6 -16 -18 -18 -26 -2 -8 -12 -24 -23 -37
-38 -43 -44 -51 -38 -57 4 -3 -3 -14 -14 -23 -11 -10 -19 -26 -17 -35 1 -10
-4 -18 -11 -18 -7 0 -23 -21 -35 -47 -12 -27 -31 -56 -41 -66 -11 -10 -17 -22
-14 -28 4 -5 2 -9 -2 -9 -5 0 -17 -20 -27 -44 -10 -25 -25 -47 -32 -50 -8 -3
-14 -12 -14 -21 0 -8 -4 -15 -10 -15 -5 0 -7 -7 -4 -15 4 -8 1 -15 -5 -15 -6
0 -11 -11 -11 -25 0 -14 -4 -25 -10 -25 -5 0 -10 -6 -10 -14 0 -8 -4 -16 -9
-18 -5 -1 -11 -10 -13 -18 -2 -8 -12 -23 -22 -32 -10 -10 -15 -18 -11 -18 5 0
4 -5 -3 -12 -7 -7 -12 -20 -12 -30 0 -10 -4 -18 -10 -18 -8 0 -38 -48 -42 -67
-5 -29 -12 -43 -20 -43 -6 0 -7 -7 -4 -15 3 -9 -1 -18 -9 -21 -8 -4 -15 -12
-15 -20 0 -8 -4 -14 -10 -14 -5 0 -10 -11 -10 -25 0 -14 -5 -25 -11 -25 -5 0
-8 -4 -4 -9 3 -5 1 -12 -5 -16 -5 -3 -10 -17 -10 -31 0 -14 -4 -23 -10 -19 -6
4 -13 -7 -16 -25 -4 -17 -11 -33 -15 -36 -5 -3 -7 -10 -4 -15 4 -5 1 -9 -4 -9
-6 0 -11 -8 -11 -18 0 -10 -3 -22 -7 -26 -5 -4 -8 -13 -8 -19 -1 -7 -6 -11
-13 -9 -7 1 -12 -10 -12 -28 0 -16 -5 -30 -10 -30 -6 0 -9 -3 -8 -7 1 -9 -9
-40 -23 -65 -5 -10 -9 -28 -9 -40 0 -19 -2 -20 -10 -8 -8 13 -10 13 -11 -2 -3
-31 -4 -36 -11 -44 -5 -4 -8 -16 -8 -26 0 -10 -4 -18 -10 -18 -5 0 -10 -11
-10 -24 0 -14 -5 -28 -10 -31 -6 -4 -8 -11 -5 -16 4 -5 -1 -12 -9 -15 -10 -4
-16 -18 -16 -35 0 -16 -5 -29 -11 -29 -5 0 -8 -4 -4 -9 3 -5 1 -12 -5 -16 -5
-3 -10 -15 -10 -26 0 -10 -4 -27 -9 -37 -37 -73 -64 -147 -66 -181 0 -8 -5
-16 -11 -18 -7 -2 -10 -13 -7 -24 4 -12 -1 -25 -12 -33 -11 -8 -16 -20 -12
-29 3 -8 0 -21 -8 -27 -7 -6 -11 -22 -9 -36 2 -13 0 -24 -6 -24 -5 0 -10 -11
-10 -25 0 -14 -4 -25 -10 -25 -5 0 -10 -11 -10 -25 0 -14 -4 -33 -10 -43 -5
-9 -18 -53 -29 -97 -11 -44 -36 -141 -56 -215 -19 -74 -37 -144 -40 -155 -2
-11 -6 -30 -9 -42 -4 -13 -8 -31 -10 -40 -2 -10 -12 -47 -21 -83 -9 -36 -19
-75 -21 -87 -2 -11 -25 -106 -50 -210 -25 -103 -47 -195 -48 -203 -4 -33 -30
-136 -36 -145 -4 -5 -6 -27 -5 -47 1 -21 -2 -38 -7 -38 -4 0 -8 -25 -8 -56 0
-33 -4 -53 -10 -49 -5 3 -9 -17 -8 -50 1 -36 -3 -59 -10 -64 -8 -4 -14 -32
-15 -67 -1 -32 -4 -61 -8 -64 -3 -3 -10 -63 -14 -135 -4 -71 -8 -143 -10 -160
-8 -75 -17 -129 -26 -153 -6 -14 -12 -56 -14 -92 -3 -35 -8 -66 -12 -67 -5 -2
-7 -48 -7 -103 1 -55 -2 -103 -7 -106 -5 -3 -9 -63 -9 -135 0 -71 -4 -129 -8
-129 -4 0 -8 -87 -7 -192 0 -201 -1 -221 -16 -212 -5 3 -9 -997 -9 -2425 l0
-2431 -57 0 c-32 -1 -1136 -1 -2454 -1 l-2397 0 0 -1160 0 -1159 2454 0 2454
0 0 -10925 0 -10925 -10212 0 c-5616 0 -10209 2 -10207 4 2 2 22 25 44 51 22
26 93 92 158 147 64 54 117 103 117 108 0 5 10 12 22 16 31 9 448 434 448 456
0 5 5 6 10 3 6 -3 10 -3 10 2 0 4 41 50 90 100 50 51 90 100 90 108 0 8 4 15
8 15 5 0 19 9 32 20 13 11 20 20 16 20 -4 0 10 15 31 33 58 49 63 55 63 67 0
7 15 25 33 41 17 16 28 29 24 29 -4 0 5 13 20 29 15 16 44 50 63 76 19 26 43
57 53 69 9 11 79 105 155 207 215 293 236 322 254 349 9 14 43 63 77 110 33
47 99 144 148 215 48 72 91 132 96 133 4 2 7 8 7 14 0 6 10 25 23 42 13 17 47
69 77 116 29 47 57 88 63 91 5 3 7 8 5 10 -1 2 16 33 38 69 23 36 42 70 43 75
1 6 8 17 15 25 8 8 28 42 46 75 18 33 36 62 39 65 4 3 18 28 31 55 14 28 28
52 33 53 4 2 7 12 7 22 0 10 7 21 16 24 8 3 13 10 10 15 -3 5 1 14 9 21 8 7
20 30 27 51 6 22 14 39 18 39 8 0 70 122 70 139 0 6 3 11 8 11 8 0 32 49 32
67 0 7 5 13 11 13 5 0 8 4 4 9 -3 5 -1 12 5 16 5 3 10 17 10 31 0 15 6 24 16
24 11 0 15 6 11 19 -3 12 1 22 10 25 8 3 12 10 8 15 -3 5 -1 12 5 16 5 3 10
15 10 26 0 10 5 19 11 19 5 0 9 10 7 23 -2 13 2 21 10 19 7 -1 12 8 12 23 0
14 4 25 9 25 8 0 21 34 20 54 -1 5 3 12 8 15 15 11 40 66 36 79 -3 6 0 12 6
12 6 0 11 9 11 20 0 11 4 20 8 20 4 0 9 10 9 22 1 13 6 24 11 26 6 2 8 12 5
22 -4 14 0 20 11 20 10 0 16 8 16 23 0 25 21 77 32 77 3 0 4 9 1 21 -3 12 -1
24 6 28 6 4 12 19 13 34 1 15 6 27 10 27 4 0 8 7 8 15 0 8 5 15 10 15 6 0 10
14 10 30 0 17 4 30 10 30 5 0 8 13 6 30 -2 16 1 27 5 24 5 -3 9 6 9 19 0 14 7
28 16 31 9 3 14 12 11 19 -2 6 2 24 10 39 7 15 13 29 13 30 -1 2 1 10 3 18 3
8 15 49 27 90 12 41 28 94 36 117 7 23 16 52 18 65 3 13 12 48 22 78 9 30 18
62 19 70 2 8 4 16 5 18 2 1 4 7 5 12 1 6 3 11 5 13 1 1 3 11 4 22 2 11 11 47
20 80 10 33 20 71 23 85 2 14 21 90 42 170 34 125 48 181 57 225 1 6 9 39 19
75 9 36 18 74 19 85 1 12 5 25 8 30 10 17 32 129 31 158 0 15 4 27 11 27 7 0
10 19 9 55 -2 31 1 55 7 55 6 0 10 19 10 43 0 24 6 49 13 56 10 11 10 13 0 7
-7 -4 -13 -2 -13 3 0 6 6 11 13 11 8 0 12 15 11 46 -1 25 2 65 7 87 4 23 10
98 15 167 4 69 8 139 10 155 9 92 15 128 28 196 33 159 34 168 42 372 3 75 9
137 14 137 4 0 8 105 9 232 0 128 4 249 7 268 11 61 13 403 3 460 -6 30 -10
172 -11 315 0 143 -4 262 -8 265 -4 3 -10 43 -13 90 -4 47 -9 103 -12 125 -6
49 -12 133 -20 290 -4 66 -10 145 -15 175 -4 30 -9 78 -9 105 -1 28 -3 61 -6
75 -3 14 -7 41 -10 60 -3 19 -9 68 -15 110 -5 41 -12 113 -14 160 -3 47 -9 86
-15 88 -6 2 -11 31 -11 68 0 37 -4 64 -10 64 -6 0 -10 12 -9 28 1 25 -6 74
-17 126 -3 11 -8 37 -10 56 -3 19 -10 53 -16 75 -6 22 -13 54 -14 70 -3 28
-12 75 -35 190 -5 28 -11 65 -13 84 -2 18 -8 36 -13 40 -10 5 -20 48 -27 112
-1 14 -6 31 -10 37 -4 7 -8 26 -8 42 -1 17 -5 30 -10 30 -4 0 -8 18 -8 40 0
26 -5 40 -13 40 -8 0 -12 12 -12 33 1 17 -1 34 -5 37 -5 5 -36 118 -45 169 -3
14 -10 28 -16 32 -7 4 -9 14 -6 22 3 8 1 19 -3 23 -5 5 -11 18 -13 29 -11 60
-23 95 -47 147 -7 15 -14 35 -15 45 -1 17 -6 31 -26 81 -5 13 -7 27 -4 32 3 4
-2 13 -10 20 -8 7 -13 15 -10 19 2 4 -7 29 -20 56 -12 27 -21 54 -18 61 2 7 0
15 -6 19 -6 3 -11 17 -11 30 0 13 -5 27 -11 30 -6 4 -8 13 -5 21 3 8 -1 14 -9
14 -10 0 -15 10 -15 30 0 17 -5 30 -10 30 -6 0 -10 6 -9 13 3 21 -13 77 -22
77 -5 0 -9 11 -9 25 0 13 -7 28 -16 33 -9 5 -16 13 -16 18 -1 14 -8 37 -19 56
-5 10 -9 27 -9 37 0 11 -5 23 -10 26 -6 4 -8 11 -5 16 4 5 -1 9 -9 9 -10 0
-16 9 -16 24 0 14 -5 28 -10 31 -6 4 -8 10 -5 15 3 5 0 14 -7 22 -7 7 -13 18
-14 23 -3 28 -18 55 -31 55 -8 0 -12 4 -8 10 6 9 -13 50 -29 61 -5 4 -6 11 -2
17 3 5 -1 15 -9 22 -7 6 -11 18 -8 26 3 8 0 14 -5 14 -6 0 -16 16 -23 35 -7
19 -16 35 -19 35 -3 0 -7 10 -7 22 -1 13 -7 24 -13 26 -5 2 -10 16 -10 30 0
21 -2 24 -10 12 -8 -12 -10 -10 -10 8 0 13 -4 20 -10 17 -5 -3 -10 3 -10 14 0
12 -4 21 -10 21 -5 0 -9 3 -8 8 4 14 -22 73 -30 68 -5 -3 -9 1 -9 8 0 22 -55
126 -64 120 -5 -3 -9 7 -9 21 0 17 -4 24 -12 19 -7 -5 -9 -1 -6 12 5 20 -15
48 -26 37 -3 -4 -6 6 -6 20 0 19 -5 27 -17 27 -9 0 -13 3 -10 6 4 4 -2 19 -13
34 -11 16 -20 32 -20 37 0 5 -13 24 -30 43 -16 19 -29 39 -30 43 0 8 -49 77
-61 87 -4 3 -9 15 -13 28 -4 12 -12 22 -17 22 -5 0 -9 4 -9 10 0 9 -43 71 -86
123 -8 9 -14 21 -14 27 0 5 -6 13 -13 17 -7 4 -30 34 -51 65 -21 32 -47 66
-57 77 -11 11 -19 23 -19 25 0 3 -7 14 -15 23 -8 10 -90 119 -182 243 -92 124
-170 227 -173 230 -3 3 -18 23 -35 45 -16 22 -36 45 -45 52 -8 7 -12 13 -7 13
4 0 -1 8 -10 18 -10 10 -38 42 -63 72 -25 29 -59 70 -76 89 -17 20 -42 49 -55
65 -13 16 -42 48 -64 71 -22 23 -72 77 -112 121 -39 43 -145 154 -235 246
-281 287 -338 347 -338 358 0 5 -5 10 -12 10 -7 0 -23 12 -36 28 -13 15 -27
26 -30 25 -4 0 -6 3 -4 9 1 5 -2 7 -7 4 -5 -3 -39 23 -75 59 -37 35 -75 67
-86 70 -10 3 -22 14 -25 24 -5 18 -10 161 -5 171 4 8 11 157 12 240 1 41 4 77
8 80 10 7 26 879 33 1705 1 213 -1 283 -10 293 -10 10 -13 77 -14 255 -1 133
-1 245 0 250 0 4 -3 7 -7 7 -5 0 -9 64 -9 143 0 78 -4 160 -7 182 -4 22 -9 90
-11 150 -13 349 -16 389 -27 396 -8 5 -13 36 -14 81 -1 40 -7 134 -14 208 -6
74 -13 170 -14 212 -2 43 -8 84 -13 90 -5 7 -8 48 -7 90 1 56 -2 78 -12 82
-10 4 -13 26 -11 86 1 45 -2 81 -8 83 -5 2 -10 28 -11 58 -1 30 -3 54 -4 54
-1 0 -3 9 -4 20 -2 11 -9 47 -16 80 -7 33 -14 71 -16 85 -1 14 -5 36 -8 50 -2
14 -10 59 -16 100 -6 41 -14 89 -17 105 -2 17 -6 46 -9 65 -2 19 -6 50 -8 68
-22 143 -31 213 -41 306 -2 27 -12 97 -21 155 -9 58 -17 126 -19 150 -2 24 -8
47 -13 50 -9 6 -17 51 -27 155 -2 26 -8 53 -13 60 -4 6 -7 28 -7 49 1 20 -2
37 -7 37 -4 0 -8 20 -8 44 0 28 -5 46 -13 49 -9 3 -13 20 -12 46 1 23 -2 41
-7 41 -4 0 -8 23 -8 50 0 28 -4 50 -10 50 -5 0 -10 20 -10 45 0 25 -4 45 -9
45 -5 0 -8 13 -6 30 2 17 -2 36 -11 44 -7 8 -14 33 -14 55 0 23 -5 41 -10 41
-6 0 -9 12 -7 27 2 15 -2 38 -9 51 -7 14 -10 31 -7 38 3 8 0 20 -6 27 -6 7
-12 28 -13 46 -1 18 -8 37 -15 43 -7 6 -11 14 -8 18 5 8 -18 104 -56 229 -11
35 -22 77 -25 94 -2 17 -8 35 -12 41 -3 6 -7 16 -8 21 -1 6 -9 34 -17 63 -9
29 -16 53 -16 55 0 1 -2 9 -4 17 -6 17 -31 111 -33 123 -1 4 -3 9 -4 12 -1 3
-3 8 -4 13 -1 4 -12 41 -24 82 -12 41 -31 107 -43 145 -11 39 -22 77 -23 85
-2 8 -6 22 -9 30 -3 8 -7 24 -10 35 -3 11 -31 106 -62 210 -31 105 -58 195
-59 200 -2 6 -13 44 -26 85 -14 41 -25 78 -26 83 -1 4 -2 8 -4 10 -1 1 -3 9
-5 17 -4 18 -74 239 -82 260 -3 8 -7 20 -8 25 -5 19 -113 340 -126 370 -6 17
-14 38 -16 48 -1 10 -11 34 -20 55 -9 20 -17 42 -18 47 -2 11 -12 38 -25 70
-10 23 -24 67 -25 77 0 4 -6 13 -12 20 -7 6 -13 20 -13 29 0 10 -4 20 -9 23
-9 6 -25 64 -22 84 1 6 -3 12 -9 12 -5 0 -10 7 -10 15 0 9 -6 18 -14 21 -8 3
-11 15 -8 30 2 14 0 24 -7 24 -6 0 -11 9 -11 20 0 11 -4 20 -10 20 -5 0 -10
14 -10 30 0 17 -4 30 -10 30 -5 0 -7 7 -4 15 4 8 -1 17 -9 21 -8 3 -19 17 -23
32 -4 15 -8 29 -9 32 -1 3 -5 17 -9 33 -5 15 -12 27 -17 27 -5 0 -8 3 -8 8 4
27 -3 52 -16 52 -9 0 -12 6 -8 16 3 9 2 19 -3 23 -16 11 -35 52 -29 61 4 6 1
10 -4 10 -6 0 -11 11 -11 24 0 13 -7 26 -14 29 -8 3 -18 22 -22 41 -3 20 -10
36 -15 36 -5 0 -9 11 -9 24 0 14 -5 28 -10 31 -6 4 -8 10 -5 15 3 5 1 11 -5
15 -5 3 -10 15 -10 26 0 10 -7 19 -15 19 -8 0 -15 9 -15 19 0 11 -5 23 -10 26
-6 4 -8 11 -5 16 4 5 1 9 -4 9 -6 0 -11 14 -11 30 0 17 -5 30 -11 30 -6 0 -9
7 -5 15 3 9 0 15 -9 15 -8 0 -15 7 -15 15 0 8 -9 30 -20 50 -11 19 -20 37 -21
40 -7 33 -13 45 -24 45 -7 0 -12 8 -11 18 4 20 -14 62 -26 62 -4 0 -8 11 -8
24 0 14 -5 28 -10 31 -6 4 -8 10 -5 15 3 5 1 11 -4 14 -14 9 -61 103 -54 110
4 3 1 6 -5 6 -7 0 -12 9 -12 21 0 11 -4 17 -10 14 -5 -3 -11 -1 -11 4 -3 20
-5 26 -29 76 -13 28 -23 53 -22 58 1 4 -5 7 -13 7 -8 0 -15 8 -15 18 0 10 -5
23 -12 30 -7 7 -9 12 -4 12 4 0 -2 13 -13 29 -12 16 -21 34 -21 41 0 6 -4 8
-10 5 -6 -4 -10 5 -10 19 0 14 -4 26 -10 26 -5 0 -10 7 -10 15 0 8 -5 15 -11
15 -6 0 -9 6 -6 14 3 8 -1 20 -8 26 -8 7 -13 16 -10 20 3 4 -2 10 -10 14 -8 3
-15 15 -15 26 0 11 -5 20 -10 20 -6 0 -9 3 -8 8 3 11 -35 82 -44 82 -4 0 -8 7
-8 15 0 8 -4 15 -10 15 -5 0 -10 7 -10 15 0 19 -38 90 -56 106 -8 6 -14 20
-14 30 0 11 -3 19 -8 19 -4 0 -14 15 -21 32 -13 29 -45 84 -90 158 -9 14 -14
28 -13 33 1 4 -2 7 -8 7 -5 0 -10 7 -10 15 0 8 -5 15 -12 15 -6 0 -9 3 -5 6 3
3 -10 28 -29 55 -19 27 -32 49 -29 49 3 0 -8 20 -25 44 -16 25 -30 49 -30 55
0 6 -3 11 -7 11 -5 0 -17 19 -28 41 -10 23 -25 43 -32 46 -7 3 -11 9 -8 13 3
4 -3 18 -13 31 -10 13 -24 36 -31 51 -8 15 -22 36 -31 45 -9 10 -17 22 -17 26
-1 4 -21 38 -45 75 -23 37 -49 79 -57 95 -7 15 -17 27 -22 27 -5 0 -9 6 -9 14
0 8 -6 21 -12 28 -13 14 -31 43 -53 85 -7 13 -15 20 -18 16 -4 -3 -7 -1 -7 6
0 11 -85 149 -99 161 -3 3 -12 17 -20 33 -8 15 -18 27 -23 27 -4 0 -8 5 -8 11
0 13 -90 142 -102 147 -4 2 -6 8 -2 13 3 5 -2 12 -10 15 -9 3 -16 12 -16 19 0
7 -7 15 -15 19 -8 3 -15 13 -15 22 0 9 -14 29 -30 44 -17 16 -31 33 -30 37 1
4 -7 19 -17 32 -10 13 -18 27 -18 30 0 4 -12 19 -27 34 -16 16 -28 33 -28 39
0 6 -8 18 -18 27 -25 23 -72 95 -72 110 0 7 -4 10 -9 7 -9 -6 -44 28 -36 36 3
3 -8 19 -25 36 -16 18 -30 38 -30 45 0 7 -11 21 -25 31 -14 10 -25 23 -25 28
0 5 -13 23 -30 41 -16 18 -30 38 -30 45 0 6 -5 12 -11 12 -6 0 -8 7 -5 16 3 8
2 13 -2 10 -15 -9 -53 34 -48 54 2 10 -29 38 -36 33 -5 -2 -8 2 -8 9 0 8 -9
20 -20 28 -11 8 -20 20 -20 26 0 7 -13 24 -30 37 -16 14 -30 29 -30 33 0 4
-17 25 -37 48 -40 44 -136 155 -165 190 -10 12 -22 26 -27 33 -6 6 -44 55 -87
110 -42 54 -91 116 -109 138 -161 193 -157 188 -239 280 -20 22 -38 48 -42 58
-3 9 -12 17 -20 17 -8 0 -14 3 -14 8 0 10 -60 77 -60 66 0 -16 -29 31 -30 49
0 9 -3 17 -7 17 -12 0 -224 210 -258 254 -17 22 -51 61 -76 87 -26 27 -44 51
-41 54 3 3 1 5 -5 5 -5 0 -51 41 -101 90 -51 50 -89 90 -87 90 3 0 -11 15 -31
33 -47 41 -193 189 -216 219 -10 12 -18 19 -18 15 0 -4 -30 23 -67 61 -38 37
-90 86 -118 107 -27 22 -112 99 -188 172 -77 73 -143 133 -148 133 -5 0 -9 6
-9 14 0 8 -8 17 -17 20 -10 3 -27 19 -38 36 -11 16 -26 30 -32 30 -15 0 -52
30 -101 83 -19 20 -43 37 -54 37 -10 0 -18 6 -18 13 0 7 -9 19 -21 27 -43 31
-114 85 -124 96 -5 6 -39 33 -75 59 -36 27 -67 52 -70 55 -5 6 -205 165 -395
315 -55 43 -101 82 -103 87 -2 4 -8 8 -13 8 -5 0 -42 26 -82 58 -123 100 -206
162 -215 162 -4 0 -21 13 -37 30 -15 16 -31 27 -35 25 -4 -3 -15 4 -25 15 -10
11 -24 20 -32 20 -7 0 -13 7 -13 17 0 9 -3 13 -6 10 -4 -4 -15 3 -25 14 -10
12 -23 18 -28 14 -6 -3 -11 1 -11 9 0 10 -6 13 -15 10 -9 -4 -15 0 -15 10 0 9
-5 16 -11 16 -6 0 -17 7 -25 15 -9 8 -24 15 -34 15 -10 0 -21 8 -24 18 -3 9
-15 23 -27 30 -17 11 -20 11 -14 0 3 -7 -3 -3 -14 10 -12 14 -25 20 -32 16 -8
-4 -9 -3 -5 4 5 8 0 12 -13 12 -12 0 -21 7 -21 15 0 8 -6 15 -14 15 -7 0 -19
7 -26 15 -7 8 -21 15 -31 15 -10 0 -23 9 -29 19 -9 18 -62 51 -82 51 -13 0
-38 26 -38 40 0 7 -6 10 -13 7 -8 -3 -20 3 -28 14 -7 10 -21 19 -31 19 -10 0
-23 9 -30 20 -7 11 -21 20 -30 20 -10 0 -18 5 -18 10 0 6 -9 10 -20 10 -11 0
-23 7 -26 15 -4 8 -14 15 -23 15 -9 0 -23 9 -31 20 -8 11 -22 20 -32 20 -10 0
-18 4 -18 10 0 5 -11 12 -25 16 -14 3 -25 12 -25 20 0 8 -9 14 -19 14 -11 0
-23 4 -26 10 -3 5 -23 17 -43 27 -20 9 -44 25 -53 35 -9 10 -24 18 -33 18 -9
0 -16 4 -16 10 0 5 -3 10 -7 9 -23 -3 -54 15 -48 29 4 10 0 13 -14 9 -12 -3
-22 1 -25 10 -3 8 -11 11 -16 8 -6 -4 -19 2 -29 14 -10 11 -21 18 -24 14 -4
-3 -9 2 -13 11 -3 9 -14 16 -23 16 -9 0 -23 8 -30 19 -8 11 -21 16 -32 14 -11
-3 -19 0 -19 6 0 6 -6 11 -14 11 -8 0 -16 7 -20 15 -3 8 -9 14 -13 14 -14 -3
-47 13 -71 35 -13 12 -25 20 -28 19 -2 -2 -34 11 -71 28 -165 76 -154 70 -234
126 -25 18 -49 30 -53 26 -3 -3 -6 -1 -6 5 0 7 -7 12 -15 12 -8 0 -15 5 -15
10 0 6 7 10 15 10 9 0 43 11 78 25 34 14 73 28 87 30 31 5 85 13 130 19 37 6
148 17 190 20 14 1 32 6 39 11 8 4 36 8 63 8 26 -1 48 3 48 7 0 5 28 11 63 14
92 8 129 12 162 19 17 4 57 9 89 12 33 3 64 9 70 13 6 4 40 7 76 8 36 0 74 5
85 10 11 6 57 9 103 8 45 -2 82 1 82 6 0 10 113 17 408 26 122 3 222 9 222 14
0 27 687 32 827 6 50 -10 132 -19 171 -19 23 0 42 -4 42 -8 0 -4 55 -10 123
-13 193 -8 278 -13 337 -21 30 -4 71 -8 90 -9 30 -2 87 -13 180 -33 14 -3 45
-6 70 -7 25 0 48 -5 51 -10 4 -5 28 -8 55 -8 26 1 53 -3 60 -8 6 -6 31 -9 55
-7 31 3 47 -1 55 -11 8 -11 27 -15 63 -15 28 1 51 -3 51 -8 0 -5 22 -9 49 -9
28 0 52 -4 55 -8 3 -5 25 -8 50 -7 26 1 46 -2 46 -7 0 -4 20 -8 44 -8 29 0 46
-5 49 -14 4 -10 17 -14 39 -12 18 2 39 -1 46 -7 7 -6 31 -10 52 -9 21 1 42 -3
45 -8 3 -6 26 -10 50 -10 24 0 47 -5 50 -10 4 -6 22 -9 40 -7 19 2 32 1 30 -3
-3 -5 14 -10 38 -13 23 -3 69 -12 102 -21 33 -8 76 -18 95 -21 19 -3 62 -13
95 -21 33 -9 71 -18 85 -21 82 -15 328 -86 530 -152 47 -16 112 -36 145 -46
33 -9 68 -21 79 -27 10 -5 26 -11 35 -13 16 -3 104 -31 131 -42 8 -3 25 -6 38
-7 12 -1 26 -6 30 -12 4 -6 18 -14 32 -17 14 -3 36 -8 50 -12 14 -4 40 -9 58
-12 17 -3 32 -9 32 -14 0 -5 11 -9 24 -9 13 0 26 -5 28 -11 2 -5 11 -11 20
-13 10 -1 21 -5 24 -9 4 -4 18 -7 31 -7 12 0 23 -4 23 -9 0 -6 8 -10 18 -10
48 -2 92 -14 92 -27 0 -8 10 -14 25 -14 13 0 50 -10 82 -22 32 -12 64 -23 72
-24 7 -2 18 -7 24 -13 6 -6 21 -11 34 -11 13 0 23 -5 23 -11 0 -6 6 -9 14 -6
8 3 16 1 18 -5 2 -6 16 -10 31 -10 15 0 27 -4 27 -9 0 -5 13 -9 29 -9 17 0 31
-6 35 -16 3 -8 10 -13 15 -9 5 3 12 1 16 -5 3 -5 17 -10 31 -10 13 0 24 -4 24
-10 0 -5 14 -10 30 -10 17 0 30 -4 30 -10 0 -5 7 -7 15 -4 9 4 15 0 15 -10 0
-11 9 -16 30 -16 17 0 30 -4 30 -10 0 -5 7 -7 15 -4 9 4 15 0 15 -8 0 -10 9
-13 30 -10 18 3 30 0 30 -7 0 -6 7 -11 16 -11 8 0 22 -7 30 -15 8 -8 21 -12
29 -9 8 4 15 1 15 -5 0 -6 9 -11 19 -11 11 0 23 -5 26 -10 4 -6 12 -10 18 -9
21 4 65 -12 70 -25 3 -7 24 -16 46 -20 23 -3 41 -11 41 -16 0 -6 11 -10 24
-10 14 0 28 -4 31 -10 3 -5 18 -10 32 -10 15 0 23 -3 20 -7 -9 -8 40 -33 64
-33 11 0 19 -5 19 -10 0 -6 3 -9 8 -9 19 4 72 -15 72 -25 0 -7 9 -12 19 -13
10 -1 41 -12 68 -24 26 -12 53 -22 60 -22 7 0 14 -6 17 -14 3 -7 17 -13 31
-13 14 0 25 -4 25 -9 0 -5 16 -12 35 -15 19 -4 35 -11 35 -16 0 -6 12 -10 26
-10 14 0 23 -4 20 -9 -3 -5 14 -15 39 -22 25 -7 45 -17 45 -21 0 -4 9 -8 20
-8 11 0 20 -5 20 -11 0 -5 4 -8 9 -5 4 3 17 -1 27 -9 10 -8 27 -15 37 -15 9 0
17 -5 17 -11 0 -5 3 -8 8 -6 4 3 25 -3 46 -14 22 -10 46 -19 53 -19 8 0 11 -4
8 -10 -3 -5 1 -10 10 -10 17 0 56 -20 67 -35 4 -5 8 -6 8 -1 0 5 6 3 14 -3 7
-6 25 -12 39 -13 14 -1 23 -6 21 -10 -4 -7 23 -22 61 -33 43 -13 55 -18 55
-26 0 -5 9 -9 20 -9 11 0 20 -3 20 -8 0 -10 82 -46 99 -43 7 1 10 -2 6 -8 -4
-7 4 -11 19 -11 16 0 26 -6 26 -15 0 -8 14 -17 35 -21 19 -3 35 -10 35 -15 0
-5 9 -9 20 -9 11 0 20 -5 20 -11 0 -5 4 -8 9 -4 5 3 15 -1 23 -8 15 -15 81
-47 97 -47 6 0 11 -4 11 -10 0 -5 12 -10 27 -10 14 0 23 -3 20 -7 -8 -7 38
-33 59 -33 8 0 14 -4 14 -9 0 -5 10 -12 23 -16 12 -4 25 -8 30 -10 4 -1 12 -3
18 -4 5 0 7 -5 4 -11 -3 -5 3 -10 14 -10 12 0 21 -5 21 -11 0 -5 4 -8 9 -5 10
6 61 -16 61 -26 0 -5 9 -8 19 -8 10 0 22 -7 25 -16 3 -8 10 -13 15 -9 5 3 12
1 16 -5 3 -5 15 -10 26 -10 10 0 19 -5 19 -10 0 -6 3 -9 8 -8 12 2 45 -15 64
-34 16 -16 30 -20 54 -17 3 0 13 -8 22 -18 9 -10 24 -19 32 -21 8 -2 17 -8 18
-13 2 -5 12 -9 23 -9 10 0 19 -4 19 -10 0 -5 9 -10 20 -10 11 0 20 -5 20 -11
0 -5 4 -8 9 -4 5 3 12 1 16 -5 3 -5 15 -10 26 -10 11 0 19 -7 19 -16 0 -10 6
-14 15 -10 8 3 15 1 15 -4 0 -6 9 -10 20 -10 11 0 20 -4 20 -9 0 -5 9 -13 20
-16 11 -3 26 -12 32 -18 17 -16 85 -47 103 -47 8 0 15 -4 15 -10 0 -5 6 -10
14 -10 8 0 17 -7 20 -16 3 -8 10 -12 16 -9 5 3 10 1 10 -4 0 -6 7 -11 15 -11
8 0 15 -4 15 -9 0 -5 13 -11 29 -14 16 -3 35 -12 42 -19 24 -23 68 -48 84 -48
8 0 15 -4 15 -10 0 -5 9 -10 21 -10 11 0 17 -4 14 -10 -3 -5 3 -10 14 -10 12
0 21 -4 21 -9 0 -10 39 -27 53 -23 4 1 7 -2 7 -8 0 -5 7 -10 15 -10 8 0 15 -6
15 -14 0 -8 15 -17 35 -20 19 -4 35 -11 35 -16 0 -6 7 -10 15 -10 8 0 15 -5
15 -10 0 -6 3 -9 8 -8 10 2 226 -105 230 -114 2 -5 8 -8 14 -8 10 0 157 -96
168 -109 3 -4 12 -7 20 -6 13 0 15 198 18 1708 2 1702 2 1709 -18 1714 -11 3
-20 9 -20 14 0 5 -7 9 -15 9 -8 0 -15 5 -15 12 0 6 -3 8 -7 5 -3 -4 -17 0 -30
8 -13 9 -23 12 -23 9 0 -4 -9 1 -21 12 -12 10 -24 18 -28 17 -3 -1 -8 1 -11 4
-3 4 1 3 8 -1 6 -4 12 -3 12 3 0 5 -13 12 -30 16 -16 4 -32 11 -35 16 -4 5
-15 9 -26 9 -10 0 -19 5 -19 11 0 5 -4 8 -9 4 -5 -3 -12 -1 -16 5 -6 10 -20
16 -135 66 -36 16 -105 51 -155 78 -88 47 -365 189 -375 191 -3 1 -68 32 -145
69 -77 37 -165 79 -195 93 -30 14 -77 36 -105 48 -27 13 -129 58 -225 99 -96
42 -183 81 -192 86 -10 6 -25 10 -33 10 -8 0 -15 5 -15 10 0 6 -3 9 -7 8 -5
-2 -101 37 -215 85 -114 49 -211 89 -215 89 -4 0 -12 3 -18 8 -5 4 -66 31
-135 60 -69 29 -138 58 -155 65 -99 43 -291 115 -305 115 -9 0 -20 4 -26 10
-21 21 -596 217 -1049 358 -274 86 -340 106 -350 108 -5 1 -44 12 -85 25 -41
13 -83 22 -92 20 -10 -1 -18 2 -18 7 0 5 -21 15 -47 22 -27 6 -57 14 -68 17
-11 3 -35 7 -52 10 -18 3 -33 9 -33 14 0 5 -18 9 -41 9 -24 0 -38 4 -34 10 4
6 -10 10 -34 10 -21 0 -41 4 -43 10 -1 5 -18 10 -35 12 -18 1 -33 6 -33 11 0
4 -13 6 -30 3 -16 -2 -30 0 -30 5 0 5 -3 8 -7 8 -24 -4 -53 3 -65 14 -7 8 -31
14 -52 15 -21 1 -43 5 -50 9 -6 5 -23 8 -38 7 -16 0 -28 3 -28 7 0 5 -15 9
-34 9 -19 0 -38 4 -41 10 -3 5 -19 8 -36 6 -16 -2 -32 0 -35 5 -3 5 -25 9 -50
9 -32 0 -44 4 -44 14 0 11 -12 15 -42 14 -23 0 -44 4 -46 10 -1 5 -18 8 -37 5
-21 -3 -35 0 -35 6 0 6 -19 11 -44 11 -25 0 -47 4 -51 10 -3 5 -26 9 -51 8
-26 0 -49 3 -53 8 -3 5 -15 10 -26 12 -35 4 -129 23 -155 31 -14 4 -42 7 -62
6 -21 -1 -38 2 -38 7 0 4 -22 8 -50 8 -38 0 -50 4 -50 15 0 12 -10 14 -47 11
-27 -2 -54 1 -62 7 -7 6 -38 10 -68 9 -33 -1 -52 2 -48 8 4 6 -16 10 -49 10
-31 0 -56 4 -56 8 0 5 -24 8 -52 7 -60 -1 -80 3 -72 16 3 5 -22 9 -55 9 -34 0
-61 4 -61 9 0 4 -26 8 -57 7 -32 -1 -65 1 -73 5 -8 4 -51 10 -95 13 -71 4
-178 15 -330 31 -27 3 -72 8 -100 10 -27 3 -77 10 -110 17 -33 6 -87 12 -120
13 -34 1 -70 6 -80 11 -11 6 -65 9 -120 9 -55 0 -102 2 -105 6 -3 3 -68 9
-145 13 -77 4 -156 10 -175 14 -19 4 -102 7 -185 7 -82 0 -153 3 -156 8 -6 8
-1167 17 -1215 9z m-12528 -3125 c111 -4 219 -9 240 -12 22 -3 131 -8 244 -10
214 -5 288 -10 330 -19 23 -6 50 -8 205 -20 28 -3 61 -7 75 -10 14 -4 57 -8
95 -11 39 -3 88 -8 110 -11 22 -3 65 -8 95 -10 186 -12 227 -16 240 -21 8 -4
45 -7 83 -9 37 -1 73 -7 81 -13 7 -6 15 -9 18 -6 2 3 40 0 84 -5 43 -5 102
-12 129 -15 86 -8 139 -15 175 -20 19 -3 60 -8 90 -11 30 -4 57 -10 60 -15 3
-4 30 -10 61 -12 30 -2 59 -6 65 -9 5 -2 34 -6 64 -7 30 -2 59 -6 65 -9 9 -6
77 -16 180 -26 22 -2 42 -5 45 -6 3 -1 9 -2 13 -1 5 1 34 -3 65 -8 32 -6 77
-13 102 -17 25 -3 54 -8 65 -10 11 -2 38 -6 60 -9 22 -3 69 -13 105 -21 36 -9
76 -18 90 -20 14 -2 53 -12 88 -23 34 -11 70 -18 79 -17 9 2 27 -3 40 -9 13
-7 37 -11 53 -9 21 3 30 -1 30 -11 0 -11 11 -15 40 -15 22 0 40 -4 40 -9 0 -5
20 -8 45 -6 24 2 47 -1 50 -6 4 -5 26 -9 51 -9 27 0 43 -4 39 -10 -3 -5 9 -9
30 -8 20 1 40 -4 44 -11 4 -6 24 -12 44 -13 20 -1 37 -5 37 -10 0 -4 20 -8 45
-8 25 0 45 -4 45 -9 0 -4 16 -7 35 -6 19 1 35 -2 35 -7 0 -4 15 -8 34 -8 47 0
52 -13 16 -43 -16 -14 -30 -30 -30 -35 0 -13 -55 -72 -68 -72 -7 0 -12 -7 -12
-15 0 -7 -6 -18 -13 -22 -7 -4 -28 -28 -47 -53 -19 -25 -38 -46 -42 -48 -5 -2
-8 -8 -8 -13 0 -17 -196 -219 -213 -219 -4 0 -6 -4 -3 -9 3 -5 -1 -14 -9 -21
-8 -7 -12 -16 -9 -21 3 -5 0 -9 -6 -9 -6 0 -18 -7 -26 -15 -9 -8 -12 -15 -8
-15 4 0 -3 -9 -16 -20 -13 -11 -27 -20 -32 -20 -4 0 -8 -8 -8 -18 0 -10 -18
-36 -40 -57 -22 -21 -40 -44 -40 -51 0 -6 -11 -19 -24 -30 -14 -10 -23 -21
-20 -25 2 -4 -3 -9 -11 -13 -8 -3 -15 -10 -15 -15 0 -6 -11 -22 -25 -37 -14
-15 -25 -30 -25 -34 0 -5 -14 -22 -30 -40 -17 -18 -30 -36 -30 -41 0 -6 -9
-19 -19 -30 -11 -12 -46 -60 -78 -107 -32 -48 -66 -96 -75 -106 -10 -11 -18
-25 -18 -32 0 -7 -4 -14 -8 -16 -7 -2 -171 -248 -248 -370 -13 -21 -35 -55
-48 -75 -13 -21 -58 -96 -100 -168 -42 -71 -81 -137 -86 -145 -35 -56 -142
-252 -204 -375 -28 -55 -53 -102 -56 -105 -8 -7 -226 -469 -246 -521 -9 -24
-21 -48 -26 -53 -4 -6 -8 -18 -8 -28 0 -10 -4 -18 -8 -18 -5 0 -9 -6 -9 -12 0
-7 -12 -39 -27 -70 -14 -31 -26 -64 -26 -73 0 -9 -7 -23 -15 -31 -8 -9 -15
-24 -15 -34 0 -10 -5 -22 -10 -25 -6 -4 -8 -10 -5 -15 3 -5 1 -11 -5 -15 -5
-3 -10 -17 -10 -31 0 -13 -4 -24 -9 -24 -5 0 -8 -12 -8 -26 0 -15 -5 -29 -11
-33 -5 -3 -18 -31 -27 -61 -9 -30 -21 -65 -26 -78 -5 -13 -9 -31 -9 -41 0 -11
-7 -21 -15 -25 -8 -3 -12 -12 -9 -20 3 -8 1 -17 -5 -21 -6 -3 -11 -19 -11 -36
0 -16 -4 -29 -10 -29 -5 0 -10 -13 -10 -29 0 -17 -5 -33 -11 -37 -6 -3 -8 -15
-6 -26 3 -11 0 -21 -9 -25 -8 -3 -14 -19 -14 -37 0 -18 -5 -37 -12 -44 -7 -7
-9 -12 -5 -12 4 0 2 -10 -4 -22 -7 -13 -12 -35 -11 -50 1 -16 -2 -28 -8 -28
-5 0 -10 -14 -10 -30 0 -17 -6 -33 -14 -36 -9 -3 -13 -17 -10 -40 1 -19 -1
-34 -7 -34 -5 0 -9 -13 -9 -30 0 -16 -5 -30 -11 -30 -6 0 -9 -10 -8 -22 2 -13
-1 -34 -6 -48 -5 -14 -8 -33 -6 -43 1 -9 -5 -24 -13 -33 -9 -9 -16 -28 -15
-42 1 -15 -3 -40 -10 -55 -6 -16 -8 -33 -5 -38 3 -6 1 -15 -4 -22 -5 -7 -12
-29 -16 -49 -3 -21 -9 -55 -12 -75 -4 -21 -9 -42 -13 -48 -4 -5 -8 -26 -10
-45 -2 -19 -7 -43 -12 -52 -5 -9 -9 -32 -9 -51 0 -18 -3 -37 -7 -41 -4 -3 -7
-19 -8 -34 -1 -15 -6 -43 -10 -62 -5 -19 -7 -48 -6 -64 2 -16 -3 -32 -9 -36
-7 -4 -14 -33 -16 -65 -2 -31 -6 -67 -10 -79 -4 -11 -8 -39 -9 -61 -2 -22 -8
-78 -14 -125 -7 -47 -13 -110 -14 -140 -2 -30 -6 -60 -9 -66 -10 -15 -30 -193
-33 -292 -2 -46 -7 -91 -11 -100 -10 -25 -15 -251 -20 -891 -3 -316 -1 -582 2
-590 4 -9 9 -68 10 -131 1 -63 4 -129 8 -146 6 -34 12 -118 22 -334 4 -77 12
-138 18 -142 5 -4 11 -35 11 -70 1 -35 4 -70 8 -78 6 -15 14 -99 20 -200 1
-30 6 -60 10 -67 4 -6 8 -36 8 -65 1 -29 7 -60 14 -68 7 -8 12 -37 13 -64 0
-27 4 -51 9 -55 5 -3 8 -27 7 -53 -1 -27 3 -48 7 -48 5 0 9 -22 9 -49 0 -28 5
-53 10 -56 6 -3 10 -26 10 -51 0 -24 5 -44 10 -44 6 0 10 -18 10 -39 0 -22 4
-42 9 -45 5 -3 11 -23 14 -43 7 -55 26 -130 84 -333 13 -47 26 -96 29 -109 6
-28 59 -220 74 -265 6 -17 24 -78 41 -136 17 -58 34 -114 39 -125 5 -11 23
-66 39 -122 17 -56 36 -105 41 -108 5 -3 7 -12 3 -20 -3 -8 -1 -15 5 -15 8 0
18 -33 24 -77 1 -7 5 -13 10 -13 4 0 8 -11 8 -24 0 -13 7 -29 15 -36 8 -7 18
-30 21 -51 4 -22 10 -39 15 -39 5 0 9 -9 9 -19 0 -11 5 -23 10 -26 6 -4 10
-12 9 -18 -3 -25 1 -38 11 -32 5 3 10 0 10 -8 0 -7 9 -31 19 -53 11 -21 17
-42 14 -46 -2 -5 1 -8 6 -8 6 0 11 -8 11 -19 0 -10 7 -24 15 -31 8 -7 13 -16
10 -20 -3 -5 -1 -11 5 -15 5 -3 10 -15 10 -26 0 -10 4 -19 9 -19 8 0 22 -32
25 -55 1 -5 7 -14 14 -18 6 -4 12 -15 12 -22 0 -8 4 -15 10 -15 5 0 9 -3 8 -7
-3 -15 14 -63 23 -63 5 0 9 -9 9 -20 0 -11 7 -23 15 -26 8 -4 13 -10 10 -14
-3 -5 -1 -11 5 -15 5 -3 10 -15 10 -26 0 -10 4 -19 9 -19 5 0 12 -11 15 -25 4
-14 13 -25 21 -25 8 0 15 -9 15 -20 0 -11 5 -20 11 -20 5 0 8 -4 4 -9 -3 -5
-1 -12 5 -16 5 -3 10 -14 10 -24 0 -10 11 -30 25 -45 13 -14 21 -26 17 -26 -4
0 -2 -4 3 -8 6 -4 19 -26 29 -49 11 -24 23 -43 27 -43 5 0 18 -20 30 -45 12
-25 25 -45 30 -45 5 0 9 -6 9 -13 0 -7 9 -23 20 -35 11 -12 20 -26 20 -32 0
-5 5 -10 10 -10 6 0 10 -5 10 -10 0 -10 37 -67 51 -80 3 -3 25 -34 50 -70 24
-36 46 -67 49 -70 3 -3 30 -39 60 -80 29 -41 62 -84 72 -94 10 -11 18 -23 18
-27 0 -4 6 -14 13 -21 12 -13 61 -77 102 -134 49 -67 273 -362 295 -388 14
-16 39 -46 56 -65 17 -20 37 -45 45 -57 15 -23 98 -118 169 -195 25 -27 70
-76 100 -110 30 -34 127 -134 215 -223 137 -138 216 -213 399 -380 17 -15 69
-60 116 -100 47 -39 90 -75 96 -81 6 -5 28 -23 49 -40 21 -16 43 -35 49 -40
31 -30 297 -232 415 -317 75 -53 141 -101 147 -106 24 -21 439 -295 557 -368
70 -43 140 -87 155 -96 15 -10 33 -21 41 -24 8 -4 53 -31 100 -59 98 -59 126
-74 336 -192 83 -45 156 -83 163 -83 6 0 12 -5 12 -12 0 -6 3 -8 7 -5 3 4 13
1 22 -7 24 -21 271 -147 271 -139 0 5 4 3 8 -4 11 -17 114 -63 125 -56 6 3 7
1 3 -5 -5 -8 0 -12 13 -12 10 0 21 -3 23 -7 5 -12 81 -47 101 -46 9 0 17 -4
17 -8 0 -5 7 -9 15 -9 7 0 19 -8 24 -17 6 -10 11 -15 11 -10 0 4 10 1 23 -8
13 -8 27 -12 30 -8 4 3 7 1 7 -5 0 -7 9 -12 19 -12 11 0 23 -5 26 -10 4 -6 11
-8 16 -5 5 4 9 -1 9 -9 0 -10 9 -16 26 -16 14 0 23 -4 20 -9 -5 -7 11 -14 69
-27 36 -8 55 -18 55 -30 0 -7 8 -11 20 -9 11 2 20 1 20 -3 0 -7 76 -45 93 -46
4 -1 11 -6 15 -12 4 -6 35 -19 69 -30 35 -10 63 -22 63 -26 0 -5 9 -8 19 -8
10 0 22 -7 25 -16 3 -8 10 -12 16 -9 5 3 10 1 10 -4 0 -6 9 -11 19 -11 11 0
22 -4 25 -9 5 -7 47 -20 79 -25 4 -1 11 -6 15 -12 6 -9 26 -20 52 -29 3 -1 13
-5 22 -9 9 -4 22 -9 30 -11 37 -9 58 -18 58 -26 0 -5 7 -9 15 -9 8 0 15 -4 15
-10 0 -5 11 -10 25 -10 14 0 25 -5 25 -10 0 -6 3 -9 8 -8 4 0 14 -2 22 -5 8
-3 24 -7 35 -10 11 -2 19 -9 17 -16 -2 -9 4 -12 18 -8 11 3 20 1 20 -4 0 -5 9
-9 20 -9 11 0 20 -4 20 -10 0 -5 11 -10 24 -10 14 0 28 -5 31 -10 4 -6 11 -8
16 -5 5 4 12 -1 15 -9 3 -9 15 -16 25 -16 10 0 19 -4 19 -10 0 -5 9 -10 19
-10 11 0 22 -4 26 -9 3 -6 14 -8 25 -6 11 2 20 0 20 -6 0 -5 9 -9 20 -9 11 0
20 -4 20 -8 0 -13 52 -36 74 -33 11 2 16 -2 12 -8 -5 -7 2 -11 18 -11 14 0 28
-5 31 -10 4 -6 11 -8 16 -5 5 4 12 -1 15 -9 3 -9 17 -16 30 -16 13 0 24 -5 24
-10 0 -6 3 -9 8 -8 13 3 67 -15 73 -24 3 -5 15 -10 27 -11 11 0 18 -5 16 -9
-5 -8 11 -12 30 -9 5 1 12 -2 15 -6 11 -15 50 -33 71 -33 11 0 20 -4 20 -9 0
-5 9 -7 20 -4 13 4 20 0 20 -10 0 -8 14 -18 33 -22 42 -10 37 -8 80 -29 21
-10 40 -16 44 -12 3 3 11 -1 17 -10 6 -8 18 -16 26 -18 8 -2 29 -9 45 -16 17
-7 33 -14 37 -14 3 -1 10 -4 14 -8 4 -5 18 -8 31 -8 13 0 23 -3 23 -7 0 -9 48
-33 65 -33 6 0 30 -9 53 -20 22 -11 46 -20 52 -20 5 0 10 -5 10 -10 0 -6 3 -9
8 -8 7 3 65 -17 95 -33 10 -5 22 -7 27 -4 6 4 10 3 10 -2 0 -8 47 -33 62 -33
4 0 31 -11 60 -24 29 -13 62 -26 73 -28 11 -1 25 -7 30 -11 14 -11 276 -118
295 -120 8 -1 17 -5 20 -8 5 -5 322 -137 345 -143 6 -2 21 -8 35 -13 14 -6 57
-23 95 -38 39 -16 75 -32 82 -37 7 -6 17 -7 23 -3 5 3 10 1 10 -4 0 -6 4 -11
9 -11 5 0 30 -10 57 -22 27 -12 54 -22 59 -23 6 0 27 -8 48 -17 20 -10 38 -17
40 -16 1 0 21 -9 45 -21 23 -12 47 -19 52 -16 6 4 13 0 16 -9 3 -8 14 -13 25
-11 10 2 19 0 19 -5 0 -7 61 -33 82 -35 3 0 10 -3 14 -7 4 -5 18 -8 31 -8 13
0 23 -3 23 -8 0 -10 62 -37 78 -34 6 2 12 -1 12 -6 0 -9 52 -23 74 -21 5 0 12
-4 15 -10 4 -6 19 -12 33 -13 15 -1 26 -7 25 -12 -1 -5 27 -19 63 -30 36 -12
71 -25 78 -29 7 -5 19 -6 27 -3 9 3 15 -1 15 -9 0 -8 9 -15 20 -15 11 0 20 -4
20 -10 0 -5 13 -10 29 -10 17 0 32 -4 36 -10 3 -5 12 -7 20 -3 8 3 15 0 15 -6
0 -6 11 -11 24 -11 13 0 27 -7 30 -16 3 -8 10 -12 16 -9 5 3 10 2 10 -2 0 -5
12 -10 28 -11 15 -1 29 -7 30 -12 2 -6 17 -10 33 -10 16 0 29 -5 29 -11 0 -6
7 -9 15 -5 9 3 15 0 15 -9 0 -10 10 -15 30 -15 17 0 30 -5 30 -10 0 -6 3 -9 8
-8 16 3 82 -15 82 -23 0 -5 14 -9 30 -9 17 0 30 -5 30 -12 0 -6 3 -8 6 -5 4 4
19 0 33 -7 14 -8 35 -18 46 -22 11 -4 22 -8 25 -9 3 -1 20 -6 38 -10 18 -4 35
-12 38 -16 3 -5 16 -9 29 -9 13 0 25 -3 27 -7 3 -8 154 -64 176 -66 6 0 12 -3
12 -7 0 -4 6 -7 14 -7 15 0 28 -5 346 -129 124 -48 227 -90 230 -93 3 -3 10
-7 15 -8 10 -2 686 -294 831 -359 21 -9 41 -18 44 -19 12 -4 68 -29 239 -105
189 -83 337 -156 358 -176 7 -7 33 -20 57 -30 25 -11 46 -22 46 -26 0 -5 9 -8
20 -8 11 0 20 -3 20 -7 0 -10 49 -33 68 -33 8 0 28 -10 45 -22 18 -13 34 -22
37 -21 3 0 4 -2 3 -6 -1 -4 8 -8 19 -8 12 -1 24 -7 28 -14 4 -6 12 -9 18 -5 6
3 13 2 17 -4 3 -5 15 -10 26 -10 11 0 17 -4 14 -10 -4 -6 5 -10 20 -10 14 0
24 -4 21 -9 -3 -4 14 -16 37 -26 65 -28 457 -222 504 -249 23 -14 89 -54 146
-90 57 -37 109 -66 115 -66 5 0 12 -7 16 -15 3 -8 12 -15 19 -15 8 0 20 -7 27
-15 7 -8 21 -15 31 -15 11 0 19 -4 19 -10 0 -5 7 -10 16 -10 8 0 12 -4 9 -10
-3 -5 1 -10 10 -10 9 0 29 -10 44 -21 17 -13 34 -18 42 -14 8 5 10 4 5 -3 -5
-8 1 -12 14 -12 12 0 18 -4 15 -10 -3 -5 16 -20 42 -32 26 -12 50 -26 51 -30
2 -4 10 -8 18 -8 8 0 14 -4 14 -10 0 -5 6 -10 13 -10 7 0 18 -9 25 -21 7 -12
16 -18 19 -15 8 8 63 -22 63 -35 0 -6 5 -7 10 -4 6 3 10 1 10 -4 0 -6 6 -11
13 -11 8 0 22 -9 31 -19 10 -11 24 -17 31 -15 7 3 15 -2 18 -10 4 -9 12 -16
19 -16 7 -1 26 -11 41 -24 31 -25 35 -45 22 -111 -4 -22 -8 -51 -10 -65 -3
-30 -23 -162 -31 -205 -3 -16 -7 -43 -10 -60 -2 -16 -8 -52 -14 -80 -5 -27
-12 -68 -15 -90 -2 -22 -7 -51 -10 -65 -3 -14 -9 -51 -15 -82 -12 -70 -17 -95
-25 -128 -3 -14 -7 -38 -10 -55 -8 -45 -41 -198 -86 -395 -22 -96 -42 -186
-45 -199 -3 -14 -14 -57 -25 -97 -11 -40 -22 -82 -24 -94 -3 -11 -7 -30 -10
-41 -2 -12 -12 -47 -21 -78 -9 -31 -18 -64 -19 -73 -7 -32 -86 -299 -146 -490
-22 -70 -40 -130 -40 -133 0 -2 -9 -28 -20 -57 -11 -29 -22 -60 -24 -68 -2 -8
-11 -35 -20 -60 -9 -25 -17 -49 -19 -55 -2 -5 -6 -19 -10 -30 -5 -11 -12 -31
-16 -45 -4 -14 -11 -34 -16 -45 -4 -11 -8 -26 -10 -33 -1 -7 -12 -33 -23 -58
-12 -24 -21 -51 -21 -59 0 -8 -4 -15 -9 -15 -4 0 -7 -13 -5 -30 2 -16 -1 -30
-6 -30 -6 0 -10 -11 -10 -24 0 -13 -7 -27 -15 -30 -9 -3 -15 -11 -14 -18 3
-20 -13 -78 -22 -84 -5 -3 -9 -14 -9 -25 0 -10 -4 -19 -9 -19 -4 0 -7 -11 -6
-25 2 -14 -1 -25 -6 -25 -5 0 -9 -13 -9 -29 0 -16 -3 -31 -7 -33 -5 -1 -24
-50 -44 -108 -31 -89 -73 -195 -108 -275 -5 -11 -18 -41 -30 -67 -12 -26 -21
-50 -21 -53 0 -4 -8 -25 -19 -48 -20 -46 -34 -79 -36 -87 -1 -5 -12 -30 -67
-149 -16 -35 -32 -77 -35 -93 -3 -15 -9 -28 -14 -28 -5 0 -9 -4 -9 -9 0 -32
-389 -852 -464 -981 -9 -14 -47 -83 -87 -155 -59 -108 -192 -333 -258 -435 -8
-14 -14 -28 -13 -32 1 -5 -2 -8 -7 -8 -7 0 -87 -125 -116 -181 -5 -10 -13 -19
-17 -19 -5 0 -8 -7 -8 -16 0 -9 -7 -22 -16 -28 -8 -6 -16 -19 -18 -28 -1 -9
-14 -29 -29 -44 -15 -15 -27 -33 -27 -41 0 -8 -9 -24 -20 -36 -11 -12 -18 -27
-16 -34 3 -7 1 -13 -5 -13 -14 0 -39 -26 -39 -39 0 -6 -4 -11 -10 -11 -5 0 -7
-7 -4 -15 4 -8 1 -15 -5 -15 -6 0 -11 -6 -11 -13 0 -7 -9 -18 -20 -25 -11 -7
-20 -21 -20 -31 0 -10 -7 -21 -15 -25 -8 -3 -15 -15 -15 -26 0 -11 -6 -20 -14
-20 -13 0 -31 -27 -28 -42 1 -5 -2 -8 -8 -8 -5 0 -10 -7 -10 -15 0 -8 -4 -15
-10 -15 -5 0 -10 -6 -10 -13 0 -7 -9 -19 -20 -27 -11 -8 -20 -22 -20 -32 0
-10 -4 -18 -9 -18 -5 0 -13 -10 -17 -22 -3 -13 -20 -35 -35 -49 -16 -14 -29
-32 -29 -40 0 -8 -9 -21 -20 -29 -11 -8 -20 -20 -20 -27 0 -7 -4 -13 -10 -13
-5 0 -10 -7 -10 -15 0 -8 -4 -15 -9 -15 -5 0 -12 -11 -15 -25 -4 -14 -11 -23
-16 -20 -6 3 -15 -7 -22 -22 -7 -15 -21 -36 -31 -45 -10 -9 -18 -20 -19 -25 0
-4 -4 -7 -9 -5 -5 1 -9 -5 -9 -14 0 -9 -9 -25 -21 -35 -11 -9 -21 -21 -21 -26
-1 -20 -11 -33 -25 -33 -8 0 -11 -5 -8 -10 3 -5 1 -10 -4 -10 -6 0 -11 -7 -11
-15 0 -19 -31 -55 -47 -55 -7 0 -13 -8 -13 -18 0 -10 -16 -35 -35 -55 -19 -20
-35 -40 -35 -43 0 -4 -9 -15 -21 -25 -11 -9 -21 -21 -21 -26 -3 -27 -12 -43
-24 -43 -8 0 -18 -8 -21 -17 -4 -10 -15 -25 -25 -34 -10 -9 -18 -19 -18 -23 0
-3 -16 -23 -35 -43 -19 -20 -35 -45 -35 -55 0 -10 -4 -18 -9 -18 -18 0 -68
-56 -65 -73 1 -9 -3 -17 -10 -17 -14 0 -46 -36 -46 -52 0 -6 -3 -9 -6 -5 -7 7
-34 -17 -34 -31 0 -6 -21 -32 -46 -58 -25 -27 -46 -53 -47 -59 -1 -5 -26 -33
-54 -61 -29 -29 -53 -57 -53 -63 0 -7 -20 -31 -45 -55 -25 -25 -45 -50 -45
-57 0 -7 -3 -9 -7 -6 -9 10 -44 -24 -37 -35 6 -9 -53 -68 -68 -68 -4 0 -8 -5
-8 -12 0 -13 -48 -58 -62 -58 -4 0 -8 -7 -8 -15 0 -8 -4 -15 -10 -15 -5 0 -10
-5 -10 -11 0 -6 -14 -24 -31 -40 -17 -16 -28 -29 -25 -29 4 0 -8 -13 -26 -29
-47 -41 -128 -121 -124 -121 2 0 -26 -30 -63 -67 -38 -38 -71 -78 -75 -91 -4
-12 -10 -20 -14 -18 -10 5 -32 -20 -25 -28 4 -3 1 -6 -5 -6 -14 0 -247 -232
-244 -243 1 -5 -2 -6 -8 -2 -5 3 -10 1 -10 -4 0 -6 -5 -11 -11 -11 -7 0 -63
-51 -125 -114 -63 -63 -114 -112 -114 -110 0 6 -52 -51 -69 -75 -8 -11 -18
-18 -21 -16 -4 2 -53 -41 -110 -95 -57 -55 -107 -101 -111 -102 -4 -2 -39 -33
-79 -70 -39 -38 -73 -68 -76 -68 -2 0 -12 -8 -22 -18 -30 -28 -94 -84 -157
-137 -33 -27 -66 -57 -75 -65 -13 -13 -262 -219 -314 -260 -11 -8 -36 -30 -56
-47 -21 -18 -42 -33 -48 -33 -6 0 -12 -4 -14 -8 -6 -16 -430 -343 -593 -457
-38 -27 -75 -54 -81 -60 -6 -5 -20 -16 -30 -22 -11 -7 -55 -38 -99 -70 -126
-89 -345 -233 -356 -233 -5 0 -9 -4 -9 -8 0 -4 -24 -21 -52 -36 -29 -15 -58
-33 -63 -39 -6 -7 -31 -23 -57 -37 -26 -13 -50 -30 -52 -37 -3 -7 -15 -13 -26
-13 -11 0 -23 -7 -26 -15 -4 -8 -14 -15 -25 -15 -10 0 -24 -9 -32 -20 -7 -11
-29 -26 -49 -34 -19 -8 -40 -21 -47 -29 -6 -8 -21 -13 -32 -10 -14 4 -18 1
-14 -10 4 -10 -2 -17 -19 -21 -14 -3 -26 -11 -26 -16 0 -6 -9 -10 -20 -10 -11
0 -25 -9 -32 -20 -7 -11 -21 -20 -30 -20 -10 0 -18 -4 -18 -10 0 -5 -9 -10
-19 -10 -10 0 -21 -7 -25 -15 -3 -8 -15 -15 -26 -15 -11 0 -20 -7 -20 -15 0
-8 -3 -14 -7 -13 -13 3 -53 -13 -53 -22 0 -9 -39 -23 -57 -21 -7 1 -13 -5 -13
-12 0 -13 -27 -31 -39 -27 -2 1 -8 -5 -13 -14 -5 -8 -14 -13 -21 -10 -8 2 -25
-6 -40 -20 -14 -13 -28 -21 -31 -18 -3 3 -6 0 -6 -6 0 -7 -9 -12 -20 -12 -11
0 -20 -4 -20 -10 0 -5 -9 -10 -20 -10 -11 0 -20 -4 -20 -10 0 -5 -7 -7 -15 -4
-8 4 -15 1 -15 -6 0 -18 -24 -37 -43 -34 -9 1 -17 -2 -17 -7 0 -5 -7 -9 -15
-9 -8 0 -15 -4 -15 -10 0 -5 -9 -10 -20 -10 -11 0 -20 -3 -20 -8 0 -9 -61 -38
-73 -34 -5 1 -6 -2 -3 -7 7 -11 -31 -26 -53 -22 -7 1 -10 -2 -6 -8 5 -9 -28
-30 -55 -35 -14 -3 -70 -41 -70 -48 0 -4 -9 -8 -19 -8 -11 0 -21 -3 -23 -7 -1
-5 -37 -25 -78 -46 -41 -21 -100 -52 -130 -69 -102 -57 -305 -158 -317 -158
-7 0 -13 -4 -13 -10 0 -5 -5 -10 -10 -10 -6 0 -44 -16 -84 -35 -41 -19 -77
-35 -80 -35 -3 0 -43 -18 -88 -39 -133 -62 -202 -93 -214 -95 -6 -1 -23 -9
-37 -19 -15 -9 -32 -17 -40 -17 -8 0 -17 -3 -21 -8 -4 -4 -11 -7 -14 -8 -25
-4 -72 -28 -72 -37 0 -6 -3 -8 -6 -5 -6 7 -42 -7 -144 -54 -35 -17 -69 -31
-75 -33 -5 -1 -21 -7 -35 -13 -50 -22 -105 -45 -115 -47 -45 -8 -75 -19 -75
-27 0 -6 -6 -8 -14 -5 -7 3 -25 -1 -39 -8 -14 -7 -28 -11 -31 -7 -3 3 -6 -3
-6 -12 0 -14 -6 -17 -26 -13 -16 3 -28 0 -31 -9 -3 -8 -9 -12 -13 -9 -5 3 -11
1 -15 -5 -7 -12 -85 -14 -85 -2 0 5 -6 9 -14 9 -18 0 -157 67 -231 111 -33 20
-66 35 -73 34 -6 -2 -12 2 -12 8 0 5 -9 10 -20 10 -11 0 -19 6 -18 13 2 6 -5
11 -14 9 -10 -2 -18 2 -18 8 0 5 -7 10 -15 10 -8 0 -15 5 -15 10 0 6 -11 10
-25 10 -14 0 -30 9 -37 20 -7 11 -21 20 -30 20 -10 0 -18 5 -18 11 0 6 -7 9
-15 5 -8 -3 -15 -2 -15 3 0 4 -18 14 -40 21 -21 7 -38 18 -37 23 1 6 -5 12
-13 12 -19 1 -51 15 -69 29 -7 5 -19 11 -26 12 -7 1 -25 12 -39 25 -15 13 -31
24 -34 24 -4 1 -24 9 -44 19 -20 10 -42 14 -49 10 -9 -5 -10 -2 -6 9 6 15 1
19 -19 16 -3 0 -14 9 -24 21 -10 11 -22 20 -26 19 -20 -3 -54 14 -54 28 0 8
-6 13 -12 10 -7 -2 -24 3 -38 12 -14 9 -37 23 -52 31 -16 7 -28 17 -28 22 0 4
-9 8 -20 8 -11 0 -20 5 -20 12 0 6 -3 8 -6 5 -4 -3 -16 -1 -28 5 -11 7 -23 13
-26 13 -14 2 -42 23 -41 31 1 5 -3 9 -8 9 -5 0 -13 3 -17 8 -4 4 -16 7 -26 7
-10 0 -18 4 -18 8 0 5 -33 26 -72 47 -173 90 -232 123 -378 213 -85 52 -168
104 -185 116 -16 12 -32 21 -35 21 -5 1 -35 20 -248 159 -56 36 -106 66 -110
66 -5 0 -17 9 -27 20 -10 11 -24 20 -32 20 -7 0 -13 5 -13 11 0 5 -4 8 -9 4
-5 -3 -12 -1 -16 4 -6 11 -93 71 -101 71 -3 0 -22 13 -42 29 -20 16 -47 32
-60 36 -12 3 -22 11 -22 16 0 5 -8 9 -18 9 -9 0 -23 9 -30 20 -7 11 -19 20
-27 20 -8 0 -15 5 -15 10 0 6 -7 10 -16 10 -9 0 -12 5 -8 12 5 7 3 8 -6 3 -7
-5 -20 1 -34 16 -11 13 -28 25 -36 27 -8 2 -20 10 -26 18 -6 7 -22 14 -34 14
-13 0 -21 3 -17 6 7 8 -17 34 -32 34 -6 0 -11 4 -11 9 0 5 -12 12 -26 15 -29
8 -54 29 -54 46 0 6 -5 8 -11 5 -6 -4 -21 3 -34 15 -13 12 -28 19 -34 15 -6
-3 -16 5 -23 19 -6 14 -19 26 -28 26 -10 0 -23 7 -30 15 -7 8 -18 15 -26 15
-7 0 -19 8 -26 18 -7 9 -25 23 -40 31 -16 8 -28 18 -28 23 0 4 -9 8 -19 8 -11
0 -28 11 -38 24 -10 14 -25 26 -33 28 -8 2 -22 11 -31 21 -9 9 -24 17 -34 17
-10 0 -16 3 -12 6 8 8 -18 34 -33 34 -18 0 -60 36 -52 45 4 5 1 5 -5 1 -8 -4
-23 3 -37 17 -13 14 -36 27 -50 31 -14 3 -26 12 -26 19 0 6 -19 21 -41 32 -22
10 -49 29 -59 42 -9 12 -20 19 -24 16 -3 -3 -6 -1 -6 5 0 7 -5 12 -10 12 -14
0 -110 72 -110 82 0 4 -11 8 -24 8 -16 0 -27 7 -31 20 -3 11 -13 20 -20 20 -8
0 -28 13 -46 29 -17 16 -38 27 -45 24 -8 -3 -14 0 -14 6 0 14 -32 45 -50 49
-8 2 -22 13 -33 25 -11 12 -22 21 -26 20 -4 -1 -20 9 -36 23 -15 13 -34 24
-42 24 -7 0 -13 8 -13 17 0 9 -3 13 -6 10 -4 -4 -15 3 -25 15 -11 11 -20 17
-20 12 -1 -5 -2 -829 -3 -1831 -1 -1203 2 -1827 9 -1836 5 -8 22 -17 38 -21
15 -3 27 -12 27 -19 0 -6 20 -21 43 -31 23 -11 49 -28 59 -38 12 -14 17 -16
21 -6 3 8 6 6 6 -5 1 -10 6 -15 11 -12 5 3 10 2 10 -3 0 -5 14 -15 30 -22 30
-12 30 -13 12 -30 -10 -9 -40 -20 -68 -23 -27 -3 -60 -8 -74 -11 -98 -19 -278
-36 -420 -39 -19 0 -38 -5 -41 -10 -4 -5 -43 -10 -88 -10 -45 0 -81 -3 -81 -8
0 -7 -77 -13 -290 -22 -52 -2 -102 -6 -110 -10 -8 -3 -62 -8 -120 -12 -57 -3
-107 -10 -110 -14 -3 -4 -59 -7 -125 -6 -66 0 -129 -3 -139 -8 -19 -10 -80
-12 -566 -23 -151 -3 -279 -9 -285 -13 -13 -10 -115 -13 -400 -12 -126 0
-2798 2 -5937 3 -3997 1 -5708 5 -5709 12 -4 30 -5 35152 -1 35159 4 9 11963
3 12278 -6z m7634 -1755 c19 -9 41 -22 48 -29 7 -7 19 -10 27 -7 8 4 15 1 15
-5 0 -6 9 -11 20 -11 11 0 20 -4 20 -10 0 -5 9 -10 19 -10 11 0 23 -5 26 -10
4 -6 11 -8 16 -5 5 4 12 0 15 -8 3 -8 13 -17 22 -19 9 -3 22 -6 27 -7 20 -6
130 -66 133 -73 2 -5 12 -8 23 -8 10 0 19 -5 19 -11 0 -5 4 -8 9 -4 5 3 12 1
16 -5 3 -5 14 -10 25 -10 10 0 21 -7 24 -16 4 -9 13 -14 21 -10 9 3 15 0 15
-9 0 -8 8 -12 20 -10 11 2 20 0 20 -6 0 -5 7 -9 15 -9 8 0 15 -5 15 -10 0 -6
6 -10 13 -9 25 3 38 -1 32 -11 -3 -5 3 -10 14 -10 12 0 21 -4 21 -10 0 -5 8
-10 18 -10 9 0 26 -7 36 -15 11 -8 28 -15 38 -15 10 0 18 -7 18 -15 0 -8 6
-15 14 -15 8 0 22 -7 30 -16 9 -8 22 -14 28 -12 12 4 20 0 53 -29 7 -7 21 -13
29 -13 9 0 16 -4 16 -10 0 -5 3 -10 8 -9 13 2 52 -13 52 -20 0 -11 57 -41 64
-34 3 3 6 1 6 -5 0 -7 7 -12 15 -12 8 0 15 -4 15 -10 0 -5 11 -10 25 -10 14 0
25 -4 25 -10 0 -5 6 -10 14 -10 8 0 17 -9 21 -19 4 -13 13 -18 25 -16 11 2 20
0 20 -6 0 -5 9 -9 20 -9 11 0 20 -4 20 -10 0 -5 9 -10 21 -10 11 0 18 -4 15
-9 -3 -5 19 -20 48 -34 30 -14 59 -34 64 -43 6 -10 16 -15 26 -11 10 4 16 1
16 -9 0 -8 4 -12 10 -9 5 3 19 -3 31 -14 12 -11 26 -18 31 -15 4 3 11 -2 14
-10 3 -9 13 -16 20 -16 8 0 24 -9 36 -20 12 -10 25 -17 30 -14 4 3 8 0 8 -5 0
-6 7 -11 16 -11 18 0 46 -25 37 -34 -4 -3 6 -6 20 -6 15 0 27 -3 27 -7 0 -11
58 -43 76 -43 9 0 13 -4 10 -9 -4 -5 7 -15 24 -23 16 -7 30 -16 30 -20 0 -5 6
-8 13 -8 7 0 23 -9 35 -20 12 -11 26 -20 32 -20 6 0 18 -6 25 -12 8 -7 51 -35
96 -63 128 -78 495 -323 592 -395 82 -61 143 -107 377 -285 51 -38 106 -82
124 -97 17 -15 34 -28 37 -28 3 0 17 -9 30 -21 13 -11 39 -33 58 -47 19 -15
39 -31 45 -37 6 -5 47 -37 91 -69 44 -33 82 -62 85 -65 3 -4 23 -19 45 -36 22
-16 56 -45 76 -64 66 -65 97 -91 108 -91 6 0 11 -6 11 -14 0 -14 58 -63 71
-59 4 1 17 -13 30 -32 13 -19 29 -33 35 -31 5 2 19 -9 30 -25 10 -16 25 -29
33 -29 8 0 26 -13 40 -29 14 -15 64 -59 110 -96 47 -38 92 -76 101 -84 9 -9
41 -37 71 -63 288 -246 575 -527 969 -947 12 -14 110 -123 206 -231 12 -14 34
-38 49 -55 15 -16 44 -50 64 -75 20 -24 43 -51 51 -60 23 -25 61 -70 105 -125
22 -28 47 -56 57 -63 10 -7 18 -18 18 -24 0 -10 33 -49 88 -103 12 -12 22 -26
22 -32 0 -5 16 -26 35 -46 19 -20 35 -44 35 -52 0 -8 4 -15 8 -15 12 0 53 -36
48 -41 -3 -2 15 -27 40 -54 24 -28 44 -56 44 -64 0 -8 6 -11 15 -7 10 4 15 -1
15 -14 0 -11 11 -30 25 -42 14 -12 25 -30 25 -40 0 -10 4 -18 8 -18 16 0 62
-45 62 -60 0 -9 14 -26 30 -40 17 -14 30 -32 30 -40 0 -8 14 -26 30 -39 17
-13 30 -30 30 -38 0 -8 14 -27 32 -43 17 -16 29 -32 25 -36 -3 -3 7 -17 24
-31 16 -14 29 -34 29 -46 0 -11 3 -17 6 -14 10 9 53 -44 48 -58 -3 -6 7 -18
21 -25 18 -10 25 -20 21 -33 -2 -10 -2 -16 1 -13 12 12 48 -42 44 -66 0 -5 3
-8 9 -8 20 0 50 -35 50 -59 0 -13 3 -22 6 -18 9 9 34 -19 34 -38 0 -9 5 -13
10 -10 6 3 10 -1 10 -9 0 -9 5 -16 11 -16 5 0 8 -4 4 -9 -3 -5 6 -18 20 -29
14 -11 25 -25 25 -32 0 -7 10 -25 23 -40 58 -74 67 -86 67 -94 0 -5 16 -28 35
-52 19 -23 35 -46 35 -51 0 -5 8 -18 18 -29 9 -11 22 -27 27 -36 6 -9 32 -49
60 -89 27 -41 54 -82 60 -91 5 -9 55 -88 109 -175 55 -87 106 -169 115 -183 9
-14 21 -34 27 -45 6 -11 35 -60 64 -110 28 -49 66 -115 83 -145 16 -30 38 -69
47 -85 68 -121 362 -695 361 -702 0 -2 24 -52 53 -113 30 -60 51 -110 48 -110
-3 0 2 -8 10 -17 14 -16 26 -42 29 -61 0 -4 5 -13 11 -19 6 -7 8 -13 4 -13 -6
0 35 -80 54 -105 4 -5 15 -38 25 -72 12 -39 24 -63 33 -63 8 0 12 -6 9 -14 -3
-8 1 -20 8 -26 8 -7 13 -16 10 -20 -3 -5 -1 -11 5 -15 5 -3 10 -19 10 -36 0
-16 5 -29 10 -29 6 0 10 -7 10 -15 0 -8 5 -15 10 -15 6 0 10 -9 10 -20 0 -11
5 -20 10 -20 6 0 10 -13 10 -30 0 -16 5 -30 11 -30 5 0 8 -4 4 -9 -3 -5 -1
-12 5 -16 5 -3 10 -14 10 -25 0 -10 7 -20 15 -24 8 -3 15 -9 14 -13 -3 -17 14
-73 22 -73 5 0 9 -13 9 -30 0 -16 5 -30 11 -30 5 0 8 -4 5 -9 -3 -5 1 -14 9
-21 8 -7 15 -23 15 -36 0 -13 4 -24 9 -24 11 0 25 -48 22 -72 -1 -10 2 -18 7
-18 5 0 12 -9 15 -21 3 -12 10 -18 15 -15 5 3 8 -8 6 -24 -2 -17 1 -30 6 -30
6 0 10 -8 10 -18 0 -10 5 -23 12 -30 7 -7 8 -12 4 -12 -5 0 -2 -10 6 -22 8
-13 13 -33 12 -45 -1 -14 4 -23 12 -23 12 0 19 -26 15 -52 0 -5 4 -8 10 -8 5
0 8 -4 4 -9 -3 -5 -1 -12 5 -16 5 -3 10 -19 10 -36 0 -16 5 -29 10 -29 6 0 10
-13 10 -28 0 -16 3 -32 7 -36 4 -3 8 -14 9 -24 2 -9 8 -18 13 -20 6 -2 11 -12
11 -23 0 -10 4 -19 9 -19 6 0 8 -9 6 -20 -2 -11 0 -22 6 -25 5 -4 9 -19 9 -36
0 -16 5 -29 10 -29 6 0 10 -11 10 -24 0 -13 5 -26 11 -28 6 -2 12 -16 12 -31
0 -15 3 -27 8 -27 5 0 9 -13 9 -30 0 -16 5 -30 10 -30 6 0 10 -13 10 -29 0
-17 5 -33 10 -36 6 -4 8 -11 4 -16 -3 -6 1 -16 9 -22 15 -12 27 -51 30 -94 0
-13 5 -23 9 -23 4 0 8 -13 8 -29 0 -17 5 -33 11 -37 6 -3 9 -15 6 -25 -3 -11
1 -26 9 -33 8 -8 14 -24 14 -35 0 -12 5 -21 10 -21 6 0 10 -13 10 -30 0 -16 5
-30 10 -30 6 0 8 -13 5 -29 -3 -17 -1 -33 5 -36 5 -3 10 -17 10 -29 0 -13 6
-29 14 -35 8 -7 13 -21 11 -31 -2 -11 0 -22 6 -25 5 -4 9 -19 9 -34 0 -15 4
-31 8 -36 5 -6 14 -35 22 -65 7 -30 16 -62 21 -70 4 -8 12 -33 18 -55 6 -22
22 -78 37 -125 14 -47 27 -92 29 -100 2 -8 22 -87 44 -175 22 -88 42 -173 45
-190 2 -16 5 -30 6 -30 1 0 3 -9 4 -20 2 -11 8 -45 14 -75 6 -30 14 -66 16
-80 3 -14 8 -36 11 -50 3 -14 8 -36 10 -50 2 -14 8 -52 15 -85 6 -33 12 -76
14 -96 1 -19 6 -42 11 -49 4 -7 9 -31 9 -53 1 -22 7 -42 14 -45 7 -2 12 -23
12 -52 0 -27 4 -51 8 -54 5 -3 8 -21 7 -41 -1 -19 2 -38 6 -41 5 -3 9 -27 9
-55 0 -27 4 -49 8 -49 5 0 8 -17 7 -37 0 -21 5 -51 13 -68 8 -16 16 -47 18
-70 9 -104 12 -122 19 -144 4 -12 8 -33 10 -44 1 -12 8 -50 15 -85 7 -34 10
-65 7 -69 -4 -3 -1 -20 6 -37 7 -17 13 -53 12 -81 -1 -27 3 -56 9 -63 5 -7 8
-42 7 -78 -2 -40 2 -64 8 -64 7 0 11 -28 11 -73 0 -41 3 -77 7 -81 4 -4 8 -37
9 -74 1 -37 7 -68 13 -70 7 -2 11 -36 11 -88 0 -49 4 -84 10 -84 6 0 9 -30 7
-75 -2 -45 1 -79 7 -85 7 -5 10 -46 9 -104 -1 -53 3 -98 8 -102 5 -3 9 -50 9
-104 0 -66 4 -103 13 -112 7 -7 12 -36 12 -68 -1 -30 5 -93 11 -138 19 -127
30 -256 39 -447 8 -162 5 -788 -4 -836 -2 -11 -36 -5 -44 9 -4 6 -16 12 -26
12 -10 0 -21 3 -25 7 -4 5 -11 8 -14 8 -4 1 -21 9 -39 18 -18 9 -41 17 -53 17
-11 0 -20 7 -20 15 0 8 -3 14 -7 13 -16 -3 -103 35 -103 45 0 5 -5 5 -12 1 -6
-4 -16 -1 -22 7 -6 8 -37 23 -68 34 -32 10 -58 23 -58 27 0 4 -9 8 -19 8 -10
0 -22 7 -25 16 -3 8 -10 13 -16 9 -5 -3 -18 -1 -30 5 -11 5 -29 15 -40 20 -11
6 -27 10 -35 10 -8 0 -15 4 -15 10 0 5 -7 7 -15 4 -9 -4 -15 0 -15 10 0 11 -9
16 -30 16 -16 0 -30 5 -30 11 0 5 -4 8 -9 4 -5 -3 -12 -1 -16 5 -3 5 -15 10
-26 10 -10 0 -19 5 -19 11 0 5 -4 8 -9 4 -5 -3 -12 -1 -16 5 -4 6 -11 8 -16 5
-5 -4 -9 -1 -9 4 0 6 -9 11 -20 11 -11 0 -20 5 -20 10 0 6 -9 10 -20 10 -11 0
-20 4 -20 9 0 6 -9 8 -20 6 -11 -2 -20 0 -20 6 0 5 -11 9 -24 9 -13 0 -26 7
-30 15 -3 8 -12 15 -21 15 -8 0 -15 4 -15 9 0 5 -6 8 -12 8 -25 -1 -78 16 -78
25 0 5 -4 7 -9 3 -5 -3 -16 2 -24 10 -9 8 -25 15 -36 15 -12 0 -21 5 -21 12 0
6 -3 8 -7 5 -3 -4 -17 0 -30 8 -13 9 -28 13 -33 10 -6 -3 -10 -1 -10 4 0 6 -9
11 -20 11 -10 0 -23 8 -29 17 -5 10 -13 15 -16 11 -4 -4 -23 2 -42 13 -19 11
-38 17 -44 14 -5 -4 -9 -1 -9 4 0 6 -11 11 -25 11 -14 0 -28 6 -31 14 -5 13
-40 28 -69 31 -5 0 -25 8 -44 18 -19 9 -40 17 -48 17 -7 0 -13 5 -13 10 0 6
-11 10 -25 10 -14 0 -25 5 -25 10 0 6 -9 10 -20 10 -11 0 -20 5 -20 10 0 6
-11 8 -25 6 -14 -3 -25 0 -25 5 0 5 -7 9 -15 9 -9 0 -18 7 -21 15 -4 8 -17 15
-31 15 -13 0 -22 4 -19 8 3 4 -5 8 -17 9 -30 1 -67 14 -67 23 0 4 -12 8 -27 8
-15 0 -29 5 -31 11 -2 6 -10 11 -18 11 -8 0 -14 4 -14 9 0 5 -12 9 -26 9 -15
0 -29 4 -33 9 -3 6 -14 9 -23 7 -10 -1 -18 2 -18 7 0 5 -9 9 -20 9 -11 0 -23
7 -27 16 -3 8 -11 13 -19 10 -7 -3 -17 1 -23 8 -6 7 -22 12 -36 10 -14 -1 -23
2 -19 7 3 5 -4 9 -15 9 -12 0 -21 4 -21 9 0 4 -12 8 -27 7 -17 0 -27 4 -26 12
2 7 -3 12 -10 12 -17 0 -67 23 -67 31 0 4 -13 5 -30 3 -16 -2 -30 1 -30 6 0 6
-7 10 -15 10 -9 0 -18 6 -21 14 -3 9 -15 13 -30 10 -13 -2 -24 -1 -24 3 0 13
-59 35 -75 29 -9 -3 -15 0 -15 8 0 9 -7 12 -20 9 -11 -3 -20 -1 -20 5 0 5 -11
13 -25 16 -14 4 -25 11 -25 16 0 5 -9 7 -20 5 -11 -2 -20 0 -20 6 0 5 -13 9
-30 9 -16 0 -30 5 -30 10 0 6 -9 10 -20 10 -11 0 -20 5 -20 10 0 6 -11 10 -25
10 -14 0 -25 5 -25 10 0 6 -8 10 -18 10 -10 0 -22 3 -26 8 -4 4 -11 7 -14 8
-39 6 -72 18 -72 25 0 5 -11 9 -24 9 -13 0 -29 7 -36 15 -7 8 -16 13 -20 10
-5 -3 -11 -1 -15 5 -3 5 -17 10 -30 10 -13 0 -27 5 -30 11 -4 6 -13 8 -21 5
-8 -3 -14 -1 -14 4 0 6 -11 10 -24 10 -13 0 -26 7 -30 15 -3 8 -16 15 -28 15
-13 1 -34 7 -48 15 -14 8 -35 14 -47 15 -13 0 -23 5 -23 11 0 6 -6 9 -14 6 -8
-3 -17 1 -20 9 -3 8 -17 14 -31 14 -14 0 -25 5 -25 10 0 6 -9 10 -19 10 -11 0
-23 5 -26 10 -4 6 -11 8 -16 4 -5 -3 -16 -1 -23 5 -7 6 -25 12 -40 13 -14 1
-26 8 -26 14 0 13 -31 24 -67 24 -13 0 -23 4 -23 9 0 8 -56 25 -73 22 -4 -1
-10 6 -13 14 -4 8 -14 15 -24 15 -11 0 -21 4 -25 9 -3 6 -15 8 -26 6 -11 -2
-22 2 -25 9 -3 7 -16 12 -30 10 -13 -1 -24 2 -24 7 0 5 -9 9 -19 9 -11 0 -21
5 -23 12 -2 6 -13 12 -24 13 -10 1 -35 8 -54 17 -19 9 -57 21 -83 28 -26 7
-45 15 -42 18 8 8 -68 33 -82 27 -7 -2 -13 -1 -13 3 0 10 -50 32 -72 32 -10 0
-18 6 -18 13 0 8 -9 13 -22 12 -12 -1 -39 7 -59 17 -21 10 -42 17 -46 17 -8
-2 -29 4 -73 23 -63 27 -126 48 -142 48 -10 0 -18 5 -18 11 0 6 -7 9 -15 5 -8
-3 -15 -1 -15 4 0 6 -6 10 -13 10 -23 0 -338 118 -445 166 -29 13 -56 24 -60
24 -10 0 -162 66 -169 74 -4 3 -13 6 -21 6 -7 0 -44 14 -80 31 -37 17 -79 33
-94 36 -15 3 -28 9 -28 14 0 5 -7 9 -15 9 -8 0 -40 12 -72 27 -32 15 -60 28
-63 28 -44 12 -66 19 -70 24 -10 12 -82 41 -90 36 -4 -3 -10 -2 -12 3 -4 11
-94 52 -113 52 -8 0 -15 4 -15 9 0 5 -12 12 -27 17 -32 9 -31 8 -58 18 -11 4
-27 12 -35 17 -8 5 -26 14 -40 19 -14 6 -34 14 -45 19 -28 13 -55 21 -59 18
-2 -1 -12 5 -22 14 -11 9 -44 25 -74 35 -30 10 -56 22 -58 27 -2 4 -12 7 -23
7 -10 0 -19 5 -19 10 0 6 -4 10 -10 10 -5 0 -35 12 -67 26 -31 15 -62 27 -69
28 -7 1 -18 7 -25 13 -13 11 -131 65 -137 63 -3 -1 -62 27 -280 132 -78 37
-148 69 -155 71 -7 1 -14 5 -17 8 -3 3 -106 56 -230 117 -256 127 -414 210
-615 322 -77 43 -156 86 -175 97 -19 10 -46 26 -60 34 -14 9 -104 63 -200 120
-96 57 -179 107 -185 112 -5 4 -35 23 -65 42 -30 19 -60 39 -67 45 -7 5 -15
10 -18 10 -8 0 -276 181 -299 202 -11 10 -26 18 -33 18 -7 0 -13 3 -13 8 0 4
-17 18 -38 32 -20 14 -39 27 -42 30 -3 3 -32 23 -65 45 -33 22 -68 49 -79 60
-10 11 -22 19 -26 18 -4 -1 -18 9 -30 22 -13 14 -32 25 -42 25 -10 0 -18 5
-18 11 0 18 -41 49 -63 49 -11 0 -18 3 -14 6 8 8 -21 36 -65 63 -21 12 -38 29
-38 36 0 12 -39 32 -48 26 -5 -4 -42 41 -42 51 0 4 -7 8 -15 8 -8 0 -15 4 -15
10 0 5 -15 16 -32 25 -18 9 -46 33 -63 54 -16 21 -33 37 -37 34 -5 -2 -8 1 -8
7 0 6 -8 14 -17 17 -10 4 -23 12 -29 17 -6 6 -21 17 -32 25 -12 8 -19 18 -16
22 3 5 -13 20 -36 35 -22 15 -40 31 -40 35 0 13 -38 49 -51 49 -6 0 -23 12
-37 28 -15 15 -40 38 -56 50 -16 12 -26 22 -22 22 4 0 -16 22 -44 50 -28 27
-48 54 -45 60 3 5 0 10 -7 10 -8 0 -20 9 -28 21 -26 37 -45 55 -62 62 -10 3
-18 12 -18 19 0 8 -10 20 -21 28 -32 22 -59 52 -54 60 2 4 -14 24 -35 44 -22
21 -40 42 -40 47 0 6 -5 7 -10 4 -6 -4 -9 -3 -8 2 4 15 -13 53 -24 53 -16 0
-48 41 -48 62 0 10 -4 18 -8 18 -15 0 -52 37 -52 52 0 8 -13 27 -30 43 -16 15
-27 31 -25 35 2 3 -5 13 -16 20 -10 8 -19 20 -19 27 0 7 -13 27 -30 44 -16 17
-32 40 -35 50 -4 11 -11 19 -16 19 -5 0 -9 10 -9 22 0 12 -3 19 -6 15 -9 -9
-34 19 -34 37 0 9 -4 16 -9 16 -5 0 -13 9 -16 20 -4 11 -18 32 -31 45 -14 14
-22 30 -19 35 3 6 1 10 -4 10 -6 0 -11 7 -11 15 0 8 -4 15 -10 15 -5 0 -10 6
-10 14 0 8 -4 16 -9 18 -5 2 -11 10 -13 18 -2 8 -10 22 -19 30 -8 8 -21 29
-28 47 -7 17 -19 34 -27 37 -8 3 -14 17 -14 31 0 14 -4 25 -10 25 -5 0 -10 5
-10 11 0 7 -8 19 -17 28 -10 9 -19 23 -21 31 -2 8 -8 17 -13 18 -5 2 -9 10 -9
18 0 8 -5 14 -11 14 -5 0 -8 4 -5 9 7 10 -22 71 -33 71 -4 0 -16 20 -27 45
-10 25 -22 45 -26 45 -4 0 -7 3 -6 8 4 19 -16 62 -29 62 -8 0 -13 6 -10 13 2
6 -5 27 -15 45 -10 18 -18 39 -18 47 0 8 -4 15 -10 15 -5 0 -10 7 -10 15 0 8
-4 15 -10 15 -5 0 -10 6 -10 13 0 7 -9 31 -19 52 -10 22 -17 45 -14 52 3 7 0
13 -6 13 -6 0 -11 7 -11 16 0 8 -7 22 -15 31 -9 8 -19 28 -22 44 -3 16 -9 29
-14 29 -5 0 -8 3 -7 8 5 18 -15 71 -28 76 -8 3 -14 19 -14 36 0 16 -5 30 -11
30 -5 0 -7 5 -4 10 3 6 1 10 -4 10 -6 0 -11 13 -11 29 0 17 -4 33 -10 36 -5 3
-10 17 -10 31 0 13 -3 24 -7 24 -11 0 -33 50 -33 71 0 10 -5 21 -10 24 -6 4
-10 12 -9 18 3 23 -14 77 -27 88 -8 6 -14 22 -14 35 0 13 -4 24 -9 24 -4 0 -7
11 -6 25 2 14 -1 27 -6 31 -5 3 -9 16 -9 29 0 13 -5 27 -10 30 -6 4 -10 12 -9
18 1 7 1 21 0 32 -1 17 -3 18 -11 5 -7 -11 -10 -4 -10 28 0 23 -4 42 -10 42
-5 0 -10 15 -10 34 0 19 -4 37 -9 40 -4 3 -7 17 -6 31 2 14 -1 25 -6 25 -5 0
-9 16 -9 35 0 22 -6 38 -14 41 -9 3 -14 16 -12 32 1 15 -1 32 -5 37 -5 6 -10
26 -13 45 -2 19 -20 97 -40 172 -37 146 -43 179 -52 297 -3 41 -7 78 -9 81 -2
3 -5 39 -6 78 -1 47 -6 72 -14 72 -7 0 -11 24 -9 75 1 41 -3 75 -7 75 -5 0 -9
49 -9 109 0 61 -4 112 -9 116 -5 3 -10 38 -9 78 0 39 -3 108 -7 152 -7 90 -16
331 -14 415 6 365 17 524 41 615 5 22 11 72 13 110 2 45 6 69 14 68 7 -2 11
23 11 78 0 47 4 78 9 74 6 -3 9 13 7 37 -1 24 1 54 6 67 5 14 10 51 10 83 1
32 5 58 10 58 4 0 8 18 8 41 0 22 6 46 13 54 8 7 12 31 11 56 -1 24 2 46 7 49
4 3 9 27 10 53 2 26 6 47 10 47 4 0 7 15 7 34 0 19 4 40 8 48 4 7 9 26 10 43
1 16 9 57 18 90 8 33 18 74 21 90 9 55 63 238 103 355 81 230 94 266 114 310
11 24 21 50 22 57 1 7 5 16 9 19 4 4 7 17 7 30 0 12 5 24 12 26 6 2 12 11 14
19 5 27 39 114 48 120 5 4 5 12 2 18 -4 6 0 14 8 17 9 3 16 14 16 24 0 11 5
22 10 25 6 4 10 12 9 18 -2 19 13 57 22 57 5 0 9 9 9 19 0 11 3 21 8 23 11 5
50 90 57 126 4 17 11 32 16 32 9 0 43 67 51 99 2 8 10 23 18 33 8 10 15 24 15
31 1 7 6 11 13 9 7 -1 12 7 12 17 0 11 5 23 10 26 6 4 8 11 5 16 -4 5 -1 9 4
9 6 0 11 9 11 20 0 12 9 30 20 42 11 12 26 34 32 50 7 15 16 28 20 28 5 0 8 8
8 18 0 10 13 33 29 51 16 18 27 39 24 47 -3 8 0 14 6 14 6 0 11 7 11 15 0 8 5
15 10 15 6 0 10 7 10 15 0 8 5 15 10 15 6 0 10 4 10 10 0 5 8 19 18 30 9 11
17 24 18 28 2 17 20 51 27 51 4 1 6 3 5 5 -2 2 6 13 16 25 11 12 15 21 11 21
-4 0 2 9 14 19 12 11 22 22 22 25 -3 19 1 25 18 31 12 4 18 13 16 24 -2 10 5
24 16 32 10 7 19 19 19 26 0 7 7 13 16 13 8 0 13 4 10 8 -3 5 3 18 13 29 10
11 22 29 25 41 4 12 14 22 22 22 8 0 14 6 14 13 0 8 11 27 25 43 14 16 25 35
25 43 0 8 3 11 6 8 7 -7 64 67 64 83 0 5 7 10 16 10 8 0 13 4 10 9 -3 4 3 16
14 26 11 10 20 24 20 32 0 8 5 11 12 7 8 -5 9 -2 5 9 -4 10 -2 17 5 17 11 0
48 38 48 49 0 4 18 27 40 51 22 25 40 48 40 52 0 4 28 38 63 74 34 37 83 90
109 118 26 28 52 56 57 61 18 17 129 128 346 348 116 117 234 228 263 247 29
19 52 39 52 43 0 14 24 34 36 30 6 -2 31 18 55 46 47 53 60 56 129 23z m12319
-22195 c55 -81 111 -200 166 -354 19 -56 43 -119 52 -140 9 -21 16 -45 14 -55
-1 -9 3 -19 9 -23 5 -3 10 -13 10 -21 0 -9 7 -22 16 -31 8 -9 13 -22 10 -30
-3 -8 -1 -11 4 -8 6 4 10 -7 10 -24 0 -16 5 -33 10 -36 6 -3 10 -17 10 -30 0
-13 5 -27 10 -30 6 -4 8 -11 5 -16 -4 -5 1 -12 9 -15 9 -3 16 -17 16 -29 0
-13 5 -27 10 -30 6 -4 10 -14 9 -23 -1 -10 3 -28 8 -42 6 -14 9 -28 6 -32 -2
-5 1 -8 6 -8 6 0 11 -10 11 -22 0 -13 7 -31 15 -41 7 -11 11 -25 9 -32 -3 -7
-1 -16 5 -20 6 -3 11 -19 11 -34 0 -15 3 -31 8 -35 4 -4 7 -11 8 -14 3 -35 27
-122 34 -122 9 0 21 -50 22 -92 0 -16 4 -28 9 -28 5 0 9 -15 9 -34 0 -19 5
-38 10 -41 6 -3 10 -17 10 -31 0 -14 5 -35 11 -47 7 -12 12 -34 11 -49 0 -15
3 -28 7 -28 4 0 8 -19 10 -42 1 -23 5 -46 8 -51 3 -6 8 -22 10 -36 2 -14 5
-33 7 -41 1 -8 6 -36 10 -62 5 -27 12 -48 17 -48 4 0 7 -12 5 -27 -1 -16 3
-44 10 -65 7 -20 10 -38 7 -41 -2 -3 2 -41 10 -84 16 -83 26 -139 31 -188 2
-16 9 -64 15 -105 6 -41 13 -95 16 -120 6 -59 15 -146 20 -190 46 -380 46
-1020 -1 -1355 -2 -16 -7 -48 -10 -70 -3 -22 -8 -56 -11 -75 -2 -19 -6 -68 -8
-107 -2 -46 -8 -78 -17 -87 -10 -10 -14 -33 -12 -75 1 -34 -2 -61 -7 -61 -5 0
-9 -29 -9 -64 0 -36 -4 -67 -10 -71 -5 -3 -8 -22 -7 -43 2 -20 -2 -50 -8 -67
-6 -16 -10 -43 -9 -60 1 -16 -4 -57 -11 -90 -8 -33 -16 -73 -19 -90 -13 -70
-28 -131 -38 -152 -6 -11 -8 -25 -5 -30 3 -5 -1 -22 -9 -37 -7 -16 -14 -39
-14 -52 0 -12 -4 -26 -10 -29 -5 -3 -10 -19 -10 -34 0 -15 -3 -31 -7 -35 -4
-4 -9 -19 -10 -34 -8 -71 -17 -108 -31 -118 -8 -6 -13 -18 -9 -27 3 -8 0 -20
-7 -26 -7 -6 -11 -23 -8 -41 3 -18 0 -30 -7 -30 -6 0 -11 -13 -11 -30 0 -16
-5 -30 -11 -30 -6 0 -9 -6 -6 -14 3 -7 0 -22 -7 -32 -7 -11 -16 -30 -19 -44
-3 -14 -12 -50 -20 -80 -8 -30 -13 -59 -10 -64 4 -5 1 -6 -5 -2 -8 4 -12 0
-12 -11 0 -10 -7 -26 -15 -36 -7 -11 -11 -25 -9 -32 3 -7 1 -16 -5 -20 -6 -3
-11 -17 -11 -31 0 -13 -4 -24 -10 -24 -5 0 -10 -11 -10 -25 0 -14 -4 -25 -9
-25 -4 0 -8 -8 -8 -17 0 -10 -8 -36 -17 -58 -27 -60 -39 -89 -41 -100 0 -5 -7
-23 -14 -40 -27 -64 -43 -101 -52 -117 -5 -10 -9 -23 -9 -29 0 -6 -22 -58 -50
-116 -27 -57 -50 -107 -50 -109 0 -7 -93 -192 -158 -314 -66 -124 -231 -405
-279 -472 -18 -26 -33 -50 -33 -53 0 -4 -61 -96 -70 -105 -3 -3 -23 -32 -45
-65 -22 -33 -42 -62 -45 -65 -4 -3 -28 -36 -55 -75 -27 -38 -57 -78 -67 -88
-10 -10 -18 -21 -18 -26 0 -4 -8 -16 -18 -27 -9 -10 -33 -39 -52 -64 -19 -25
-49 -63 -67 -85 -18 -22 -39 -47 -45 -55 -55 -67 -193 -229 -252 -295 -89
-100 -542 -552 -622 -621 -32 -29 -71 -62 -85 -75 -14 -13 -47 -42 -74 -64
-27 -22 -62 -52 -77 -67 -16 -16 -33 -28 -39 -28 -6 0 -7 -4 -4 -10 3 -5 0
-10 -7 -10 -7 0 -35 -20 -61 -45 -27 -25 -52 -45 -56 -45 -4 0 -26 -17 -49
-37 -59 -54 -123 -104 -149 -116 -13 -6 -23 -16 -23 -24 0 -7 -7 -13 -15 -13
-8 0 -15 -4 -15 -10 0 -5 -7 -10 -15 -10 -8 0 -28 -13 -45 -30 -16 -16 -30
-27 -30 -23 0 3 -8 -4 -19 -15 -10 -12 -24 -22 -30 -22 -7 0 -23 -12 -36 -26
-13 -14 -30 -26 -37 -28 -12 -1 -64 -37 -111 -76 -10 -8 -21 -15 -25 -16 -19
-2 -41 -17 -37 -24 3 -5 -19 -20 -49 -34 -29 -14 -56 -32 -60 -41 -3 -8 -15
-15 -26 -15 -12 0 -18 -4 -15 -10 3 -5 -3 -10 -13 -10 -11 0 -25 -7 -32 -15
-7 -8 -18 -15 -24 -15 -6 0 -18 -9 -26 -20 -8 -11 -22 -20 -32 -20 -10 0 -18
-4 -18 -10 0 -5 -7 -10 -15 -10 -8 0 -23 -8 -33 -18 -17 -17 -47 -34 -64 -36
-4 -1 -17 -9 -28 -19 -11 -9 -27 -17 -36 -17 -8 0 -12 -4 -9 -10 3 -5 -3 -10
-14 -10 -12 0 -21 -3 -21 -7 0 -5 -19 -17 -43 -28 -23 -11 -44 -22 -47 -25 -3
-3 -35 -21 -72 -39 -38 -18 -68 -37 -68 -42 0 -5 -7 -9 -15 -9 -8 0 -15 -4
-15 -9 0 -5 -16 -12 -35 -15 -19 -4 -35 -11 -35 -16 0 -6 -9 -10 -20 -10 -11
0 -23 -6 -26 -14 -5 -14 -40 -30 -58 -27 -5 1 -12 -2 -15 -6 -10 -13 -50 -33
-66 -33 -8 0 -15 -3 -15 -8 0 -4 -15 -13 -32 -20 -18 -8 -67 -29 -108 -49 -41
-19 -84 -39 -95 -44 -11 -4 -49 -21 -85 -37 -150 -69 -366 -152 -402 -156 -9
-1 -23 -8 -32 -15 -9 -8 -16 -11 -16 -8 0 4 -19 -1 -42 -10 -24 -8 -61 -19
-83 -24 -22 -5 -46 -11 -53 -12 -7 -2 -18 -9 -24 -15 -7 -7 -22 -12 -34 -12
-13 0 -25 -4 -29 -9 -3 -6 -14 -8 -25 -6 -11 2 -20 0 -20 -6 0 -5 -13 -9 -30
-9 -16 0 -30 -4 -30 -8 0 -5 -14 -9 -31 -10 -18 0 -37 -6 -42 -11 -6 -6 -21
-11 -33 -11 -13 0 -25 -4 -28 -9 -5 -8 -37 -15 -103 -24 -12 -1 -25 -6 -29
-10 -4 -4 -22 -7 -40 -7 -19 0 -34 -6 -38 -15 -3 -9 -15 -14 -28 -12 -12 2
-32 -2 -45 -8 -13 -7 -34 -11 -48 -9 -14 1 -25 -1 -25 -6 0 -7 -38 -15 -119
-24 -18 -2 -36 -8 -40 -14 -3 -5 -24 -12 -46 -15 -91 -13 -120 -18 -130 -26
-5 -4 -29 -6 -52 -5 -24 1 -43 -2 -43 -7 0 -5 -21 -9 -46 -9 -26 0 -52 -6 -59
-14 -9 -8 -30 -13 -52 -11 -21 1 -43 -2 -50 -7 -7 -5 -36 -11 -65 -13 -116 -8
-172 -15 -177 -23 -3 -4 -20 -7 -38 -7 -18 1 -54 -4 -80 -11 -26 -6 -93 -15
-148 -18 -55 -4 -129 -9 -165 -12 -36 -3 -129 -8 -208 -10 -86 -3 -140 -9
-137 -15 4 -5 -26 -10 -72 -10 -43 -1 -94 -3 -113 -5 -157 -14 -506 -19 -660
-9 -36 2 -119 7 -185 11 -66 4 -122 10 -125 14 -3 5 -59 8 -124 9 -66 0 -122
4 -125 8 -3 4 -76 9 -161 10 -141 1 -212 10 -305 40 -11 3 -44 8 -72 10 -53 5
-68 18 -35 30 9 4 36 20 58 35 23 15 49 28 58 28 9 0 16 5 16 10 0 6 9 10 19
10 10 0 22 7 25 16 3 8 10 12 16 9 5 -3 10 -1 10 4 0 6 9 11 20 11 11 0 20 5
20 10 0 6 9 10 19 10 11 0 26 7 34 15 8 8 17 12 20 9 3 -3 8 3 11 14 4 12 14
19 24 18 9 -2 28 4 41 13 13 8 30 16 37 17 18 3 45 30 37 38 -4 3 3 6 15 6 12
0 22 5 22 11 0 6 9 8 20 4 11 -4 20 -2 20 4 0 6 7 11 15 11 8 0 15 7 15 15 0
8 3 15 8 14 15 -2 52 14 52 22 0 5 9 9 20 9 11 0 20 5 20 11 0 5 4 8 9 4 6 -3
13 1 18 9 4 8 34 26 65 41 31 15 59 33 62 41 3 9 10 12 16 9 5 -3 10 -1 10 4
0 6 8 11 18 11 11 0 27 9 37 20 10 11 22 17 26 14 5 -3 9 2 9 10 0 9 7 16 14
16 20 0 136 69 136 80 0 6 6 10 14 10 13 0 158 91 193 120 7 5 14 10 17 10 6
0 98 61 106 69 3 4 52 37 110 76 58 38 107 72 110 75 3 3 32 23 64 45 93 62
294 203 311 217 6 5 55 41 110 80 55 40 102 75 105 78 3 3 30 23 60 44 30 22
57 43 58 48 2 4 8 8 14 8 5 0 15 6 23 13 20 19 45 38 105 82 30 22 62 45 70
52 8 7 56 44 105 84 50 39 100 79 113 90 12 10 26 19 31 19 5 0 11 4 13 9 2 5
53 50 115 100 147 119 153 123 172 141 9 9 54 47 101 85 47 38 101 84 120 102
39 37 36 34 140 123 41 36 79 70 85 76 5 5 50 46 100 90 49 43 111 99 137 124
26 25 97 92 159 150 118 111 595 586 666 663 22 25 39 47 37 50 -2 2 7 10 21
17 13 7 27 22 31 32 3 11 8 17 11 15 2 -3 21 13 41 36 20 23 49 54 65 69 15
15 27 30 27 33 0 3 35 42 77 86 43 43 88 96 100 117 13 20 23 33 23 28 0 -11
54 45 101 105 19 24 53 64 76 88 24 24 40 47 37 52 -3 5 2 9 10 9 9 0 16 3 16
8 0 4 13 21 28 39 15 17 47 55 72 84 25 29 50 57 56 63 5 6 13 19 17 29 3 9
11 17 17 17 5 0 10 5 10 11 0 6 14 22 30 36 17 14 29 31 27 37 -2 6 14 26 35
45 21 18 38 37 38 42 0 4 18 27 40 50 22 23 38 44 35 47 -2 3 8 16 23 31 35
32 76 91 65 91 -4 0 7 10 25 21 17 12 32 28 32 36 0 8 14 28 30 43 17 15 30
33 30 40 0 7 11 21 25 32 14 11 25 28 25 39 0 10 3 18 8 16 4 -1 9 2 12 8 3 5
15 19 28 32 12 12 22 29 22 38 0 8 5 15 11 15 15 0 39 26 39 44 0 8 11 23 25
34 14 11 25 24 25 28 0 5 13 24 29 43 16 19 27 40 24 48 -3 7 1 13 9 13 15 0
48 34 48 50 0 6 14 24 30 42 17 17 30 37 30 43 0 7 7 15 15 19 8 3 15 15 15
27 0 15 4 19 16 15 12 -4 15 -2 10 9 -3 8 -2 15 2 15 4 0 18 18 32 40 14 22
28 40 32 40 5 0 8 5 8 10 0 6 9 20 20 32 10 12 17 25 14 29 -2 5 7 16 21 25
13 9 22 20 19 26 -3 5 1 15 10 21 9 7 22 22 29 33 7 12 25 41 42 65 16 24 30
46 31 49 5 21 18 39 25 34 5 -3 9 1 9 9 0 7 8 22 19 33 10 11 22 30 25 42 4
12 11 22 16 22 8 0 15 11 55 88 10 17 21 32 26 32 5 0 9 7 9 15 0 8 5 15 10
15 6 0 10 7 10 15 0 8 5 15 11 15 5 0 8 4 4 10 -3 5 5 16 19 25 16 11 23 23
21 36 -2 11 0 17 4 15 4 -3 14 10 21 29 8 19 18 35 24 35 5 0 6 3 3 6 -3 4 5
16 19 27 14 10 23 25 21 32 -3 6 3 18 13 25 11 8 17 17 14 21 -2 4 3 14 11 22
8 9 15 23 15 33 0 10 3 15 6 11 8 -7 35 18 33 30 -4 16 19 58 39 72 11 8 18
20 16 26 -3 7 2 15 10 18 9 4 13 13 10 21 -3 7 3 20 14 27 10 8 27 33 37 57
10 23 22 42 27 42 4 0 8 9 8 20 0 11 4 20 10 20 5 0 17 17 25 37 9 21 23 45
32 55 9 10 12 18 8 18 -4 0 -2 8 6 18 18 22 27 37 106 190 109 210 184 354
216 412 95 175 136 253 219 420 51 102 96 187 99 190 4 3 10 16 14 30 4 14 19
42 32 63 13 20 21 37 18 37 -2 0 13 35 35 78 22 42 40 83 40 90 0 6 5 12 11
12 6 0 9 7 6 15 -4 8 -2 17 3 20 6 4 10 15 10 26 0 11 4 18 9 15 7 -5 31 40
35 66 1 3 4 10 9 14 4 4 7 16 7 26 0 10 5 18 11 18 6 0 9 9 6 20 -3 12 0 20 8
20 9 0 11 8 7 22 -3 13 -1 19 5 15 6 -4 16 7 24 26 6 17 13 34 14 37 1 3 6 20
10 38 4 17 11 32 16 32 5 0 9 8 9 18 0 9 7 26 15 36 8 10 12 23 9 27 -3 5 0 9
5 9 6 0 11 9 11 20 0 11 4 20 10 20 5 0 7 6 4 14 -3 8 -1 17 5 21 6 3 11 17
11 31 0 15 6 24 16 24 11 0 15 6 11 19 -3 11 1 22 8 25 8 3 11 13 8 25 -3 12
-1 21 6 21 6 0 11 9 11 19 0 11 5 23 10 26 6 3 10 15 10 26 0 10 5 19 10 19 6
0 10 9 10 20 0 11 4 20 9 20 4 0 11 19 14 42 3 24 11 44 16 46 6 2 11 16 11
32 0 15 7 30 15 34 8 3 12 12 9 21 -3 8 -1 15 5 15 6 0 11 9 11 20 0 11 4 28
8 38 9 17 62 174 66 195 2 7 6 21 10 32 38 102 51 135 66 170 18 42 32 77 35
85 1 3 7 19 14 35 14 32 22 62 23 83 1 6 5 12 10 12 4 0 8 11 8 25 0 14 5 25
11 25 6 0 9 9 6 19 -3 12 1 22 9 25 8 3 14 19 14 36 0 16 4 30 9 30 7 0 21 45
25 82 1 3 4 10 9 14 4 4 7 22 7 41 0 20 5 32 12 31 7 -2 13 6 15 17 8 68 17
104 23 100 8 -5 20 43 21 78 0 10 7 21 15 24 9 3 14 19 14 44 0 21 4 39 9 39
7 0 19 49 23 98 1 6 5 12 10 12 4 0 8 11 8 25 0 14 6 25 14 25 9 0 12 11 10
35 -1 19 2 37 7 41 5 3 9 16 9 29 0 13 5 27 10 30 6 3 10 17 10 31 0 24 16 64
25 64 2 0 17 -19 34 -43z"/>
<path d="M64944 32408 c-12 -16 -25 -28 -28 -28 -2 0 -18 -12 -34 -27 -42 -41
-114 -103 -117 -103 -4 0 -95 -95 -125 -129 -11 -13 -20 -20 -20 -15 0 5 -8
-3 -17 -16 -9 -14 -26 -31 -36 -39 -11 -8 -29 -25 -41 -39 -41 -47 -75 -80
-78 -77 -2 2 -12 -9 -23 -26 -11 -16 -24 -29 -30 -29 -5 0 -19 -13 -30 -29
-11 -17 -21 -28 -23 -26 -6 6 -32 -22 -32 -35 0 -12 -21 -36 -97 -112 -29 -28
-53 -57 -53 -64 0 -6 -7 -14 -15 -18 -8 -3 -15 -12 -15 -21 0 -8 -3 -15 -8
-15 -13 0 -63 -51 -57 -60 5 -9 -50 -60 -66 -60 -5 0 -8 -3 -7 -7 3 -16 -17
-49 -44 -75 -15 -14 -28 -30 -28 -35 -1 -13 -37 -53 -49 -53 -6 0 -11 -7 -11
-15 0 -8 -5 -15 -11 -15 -5 0 -7 -4 -4 -10 3 -5 -3 -15 -15 -22 -11 -7 -20
-18 -20 -25 0 -7 -4 -13 -10 -13 -5 0 -10 -5 -10 -11 0 -6 -6 -17 -12 -24 -29
-33 -38 -45 -38 -53 0 -5 -9 -17 -20 -27 -11 -10 -20 -24 -20 -31 0 -7 -4 -14
-8 -16 -9 -3 -112 -155 -175 -258 -22 -36 -44 -68 -49 -71 -5 -3 -9 -8 -7 -10
1 -2 -9 -22 -23 -44 -14 -22 -46 -76 -72 -120 -26 -44 -51 -87 -56 -95 -38
-61 -107 -185 -132 -235 -17 -33 -34 -62 -37 -65 -8 -6 -272 -536 -275 -554
-2 -6 -19 -45 -38 -86 -43 -91 -66 -143 -103 -235 -15 -38 -36 -89 -46 -112
-10 -23 -24 -60 -31 -82 -7 -23 -17 -41 -21 -41 -5 0 -6 -4 -3 -9 3 -5 -6 -30
-20 -56 -13 -26 -23 -50 -20 -53 3 -2 -1 -16 -8 -31 -7 -14 -11 -32 -9 -38 3
-7 0 -13 -6 -13 -6 0 -11 -10 -11 -22 0 -13 -7 -31 -15 -41 -7 -11 -11 -25 -8
-33 3 -8 0 -14 -6 -14 -6 0 -11 -13 -11 -30 0 -16 -5 -30 -11 -30 -6 0 -9 -6
-6 -13 3 -7 -1 -24 -8 -37 -7 -13 -11 -29 -8 -36 2 -7 0 -15 -6 -19 -6 -3 -11
-19 -11 -34 0 -16 -6 -34 -14 -40 -8 -7 -13 -21 -11 -31 2 -11 0 -22 -6 -25
-5 -4 -9 -20 -9 -36 0 -17 -4 -28 -10 -24 -5 3 -9 -9 -8 -29 1 -19 -3 -41 -9
-48 -6 -7 -9 -22 -7 -33 1 -11 -3 -26 -9 -35 -7 -8 -14 -28 -16 -45 -2 -16 -6
-32 -10 -35 -4 -3 -6 -16 -6 -30 1 -14 -2 -29 -6 -35 -3 -5 -9 -28 -12 -50 -7
-45 -16 -97 -23 -135 -3 -14 -7 -43 -10 -65 -2 -22 -9 -62 -14 -90 -10 -47
-16 -81 -26 -150 -2 -16 -7 -37 -10 -45 -3 -8 -8 -28 -11 -45 -8 -52 -10 -60
-16 -75 -4 -8 -8 -28 -11 -45 -2 -16 -5 -30 -6 -30 -4 0 -11 -73 -16 -157 -3
-49 -9 -88 -13 -88 -4 0 -7 -37 -6 -82 1 -90 -2 -111 -16 -102 -5 3 -9 -67 -9
-165 0 -93 -4 -172 -9 -175 -11 -7 -11 -486 0 -486 5 0 9 -76 9 -169 0 -126 3
-170 13 -174 8 -3 12 -31 11 -91 0 -48 3 -89 8 -92 4 -3 8 -41 8 -85 0 -43 4
-79 10 -79 5 0 8 -21 6 -47 -1 -27 2 -59 7 -73 5 -14 9 -51 8 -82 -1 -46 2
-58 14 -58 11 0 14 -10 13 -37 0 -21 3 -49 7 -63 5 -14 9 -41 10 -60 1 -19 4
-42 8 -50 3 -8 8 -28 10 -45 7 -45 17 -88 23 -105 7 -18 93 -347 98 -375 2
-11 21 -78 41 -150 20 -71 38 -137 40 -145 10 -43 85 -280 97 -310 8 -19 13
-40 11 -47 -2 -6 1 -14 6 -18 6 -3 11 -15 11 -25 0 -10 6 -25 14 -33 8 -8 13
-23 12 -33 -2 -10 3 -25 11 -32 7 -8 11 -18 8 -23 -4 -5 -2 -9 2 -9 5 0 10
-12 11 -27 1 -15 5 -29 10 -32 4 -3 8 -13 10 -21 2 -8 8 -16 13 -18 5 -2 9
-15 9 -28 0 -13 4 -24 9 -24 6 0 8 -9 6 -20 -2 -11 0 -22 6 -25 5 -4 9 -15 9
-26 0 -10 5 -19 10 -19 6 0 10 -6 10 -14 0 -8 6 -16 14 -19 9 -3 12 -15 9 -31
-3 -15 -1 -26 6 -26 6 0 11 -9 11 -20 0 -11 4 -20 9 -20 5 0 12 -18 16 -40 4
-22 12 -43 19 -47 7 -5 21 -32 31 -60 11 -29 23 -53 27 -53 5 0 8 -6 7 -12 -3
-29 2 -49 11 -43 6 3 10 -3 10 -14 0 -12 5 -21 10 -21 6 0 10 -9 10 -19 0 -11
5 -23 11 -26 6 -4 8 -13 5 -21 -3 -8 -2 -14 3 -14 5 0 11 -9 14 -21 4 -13 10
-18 18 -13 9 5 11 1 7 -14 -4 -12 -2 -22 3 -22 5 0 9 -9 9 -21 0 -11 5 -17 10
-14 6 4 10 -5 10 -19 0 -14 5 -26 11 -26 6 0 9 -7 5 -15 -3 -9 0 -15 9 -15 8
0 15 -9 15 -20 0 -11 5 -20 10 -20 6 0 10 -7 10 -15 0 -14 21 -59 49 -105 32
-52 56 -96 56 -103 0 -4 5 -11 11 -15 6 -4 17 -24 25 -46 8 -21 20 -41 26 -43
7 -3 13 -9 13 -13 0 -10 59 -108 155 -260 39 -61 75 -118 80 -128 17 -28 49
-77 55 -82 3 -3 23 -32 45 -65 22 -33 46 -66 53 -73 6 -7 12 -17 12 -22 0 -5
6 -15 13 -22 6 -7 30 -39 51 -70 21 -32 46 -66 55 -76 9 -10 21 -25 26 -34 30
-47 52 -76 72 -97 13 -14 31 -39 39 -58 9 -18 20 -33 24 -33 15 0 47 -36 45
-50 -1 -8 4 -21 11 -28 8 -7 14 -10 14 -7 0 4 7 0 15 -9 8 -8 15 -19 15 -25 0
-6 5 -11 10 -11 6 0 10 -5 10 -11 0 -6 26 -36 57 -67 31 -32 56 -61 55 -65 -1
-5 11 -21 27 -36 17 -16 27 -31 24 -35 -3 -3 -1 -6 6 -6 16 0 71 -54 71 -70 0
-6 5 -8 10 -5 6 3 10 -1 10 -10 0 -18 164 -185 182 -185 6 0 9 -3 6 -6 -8 -7
169 -184 184 -184 6 0 8 -3 5 -6 -3 -4 5 -15 18 -26 14 -11 25 -26 25 -34 0
-8 6 -14 13 -14 7 0 28 -16 47 -35 19 -19 38 -35 43 -35 5 0 20 -11 33 -25 13
-14 28 -25 34 -25 5 0 10 -4 10 -8 0 -5 8 -18 18 -29 17 -20 28 -20 549 -21
452 0 531 2 526 14 -3 8 -9 14 -14 14 -5 0 -9 5 -9 11 0 6 -7 17 -15 25 -8 9
-15 13 -15 9 0 -13 -30 24 -30 37 -1 17 -31 52 -52 61 -10 3 -18 13 -18 20 0
8 -18 33 -40 56 -22 22 -40 48 -40 56 0 9 -7 18 -15 21 -8 4 -15 13 -15 21 0
8 -4 12 -8 9 -4 -3 -19 13 -32 35 -14 21 -28 39 -33 39 -4 0 -5 5 -2 10 3 6
-1 10 -9 10 -9 0 -16 7 -16 15 0 8 -8 20 -19 26 -11 7 -16 19 -13 31 2 10 0
18 -5 18 -15 0 -53 36 -53 50 0 7 -12 25 -27 40 -16 15 -29 33 -31 41 -2 8 -9
19 -16 24 -7 6 -16 20 -20 32 -4 11 -13 24 -21 27 -8 3 -15 10 -15 16 0 6 -9
21 -21 33 -43 46 -251 374 -344 542 -131 237 -235 442 -228 449 4 3 1 6 -5 6
-7 0 -12 7 -12 15 0 8 -4 15 -10 15 -5 0 -10 9 -10 19 0 11 -4 22 -9 26 -5 3
-12 19 -16 36 -4 17 -13 33 -22 36 -8 3 -12 12 -9 19 3 8 1 14 -4 14 -6 0 -10
6 -10 14 0 21 -42 116 -51 116 -5 0 -9 6 -9 13 0 7 -9 31 -19 52 -10 22 -17
45 -14 52 3 7 0 13 -6 13 -6 0 -11 9 -11 19 0 11 -5 21 -12 23 -12 4 -14 10
-24 66 -4 17 -10 32 -14 32 -9 0 -22 35 -24 64 0 11 -7 21 -13 24 -7 2 -13 10
-13 18 0 8 -4 14 -9 14 -6 0 -9 8 -9 18 2 29 -34 130 -48 136 -8 3 -11 12 -8
21 4 8 1 21 -5 29 -6 7 -12 25 -13 39 -1 14 -5 24 -9 21 -4 -2 -11 16 -15 42
-3 25 -13 48 -21 51 -8 3 -12 11 -9 18 2 7 -1 21 -9 31 -7 10 -11 29 -9 41 3
13 0 23 -6 23 -5 0 -10 11 -10 25 0 14 -4 25 -10 25 -5 0 -10 14 -10 30 0 17
-4 30 -10 30 -5 0 -10 14 -10 31 0 17 -4 28 -10 24 -6 -4 -10 10 -10 34 0 23
-4 41 -9 41 -6 0 -8 9 -6 20 2 11 0 22 -6 25 -5 4 -9 20 -9 36 0 16 -6 32 -14
35 -8 3 -13 17 -12 34 1 16 -3 31 -9 34 -7 2 -10 17 -7 34 2 16 -1 33 -7 36
-6 4 -11 20 -11 36 0 16 -4 32 -10 35 -5 3 -10 19 -10 34 0 15 -4 31 -8 37 -8
9 -27 78 -38 138 -3 16 -7 33 -9 37 -3 4 -7 24 -11 45 -3 22 -10 57 -16 79 -6
22 -11 57 -11 78 -1 20 -4 37 -9 37 -4 0 -8 20 -8 44 0 25 -4 47 -9 50 -4 3
-11 31 -14 63 -13 118 -17 137 -27 147 -5 5 -10 31 -10 56 0 26 -3 50 -7 54
-4 4 -8 31 -10 61 -1 29 -6 62 -12 73 -6 11 -8 22 -5 24 2 3 0 27 -6 54 -7 27
-13 81 -15 119 -2 39 -7 88 -12 110 -5 22 -8 65 -6 95 1 30 -2 57 -6 60 -5 3
-11 48 -14 100 -3 52 -8 109 -11 125 -3 17 -8 64 -11 105 -3 41 -7 91 -10 110
-27 198 -34 997 -11 1190 3 25 8 74 11 110 3 36 8 79 11 95 3 17 7 59 8 95 2
36 6 72 9 80 3 8 8 76 11 150 8 171 12 221 20 248 14 42 17 68 31 212 4 36 9
72 12 80 3 8 6 36 7 62 1 25 4 50 9 54 4 4 7 30 7 59 0 28 4 55 10 61 9 9 13
37 26 154 4 40 14 96 29 168 8 37 13 55 30 117 9 33 18 67 20 75 1 8 6 33 11
55 4 22 7 46 6 53 -2 6 2 12 8 12 5 0 10 18 10 40 0 27 4 40 14 40 10 0 13 10
10 35 -1 19 1 35 7 35 5 0 9 18 9 40 0 24 5 40 12 40 6 0 9 3 5 6 -3 3 0 22 7
42 7 21 11 47 10 60 -1 13 4 22 12 22 8 0 14 10 14 24 0 14 4 27 9 30 4 3 7
17 6 31 -2 14 1 27 6 31 5 3 9 18 9 35 0 16 5 29 10 29 6 0 10 14 10 30 0 18
5 30 13 30 8 0 12 11 11 30 -1 17 2 30 7 30 5 0 9 11 9 25 0 14 4 25 9 25 6 0
8 9 6 20 -2 11 0 22 6 25 5 4 9 19 9 36 0 20 5 29 16 29 10 0 14 6 11 14 -3 7
0 24 7 38 7 13 11 29 9 35 -2 6 1 14 6 18 6 3 11 15 11 26 0 10 5 19 11 19 6
0 8 8 4 19 -3 11 1 25 10 34 8 9 15 22 15 31 0 8 5 18 11 21 6 4 8 13 5 21 -3
8 1 17 8 20 9 3 13 15 10 30 -2 13 0 24 6 24 5 0 10 9 10 19 0 11 6 21 13 24
6 2 13 12 13 23 2 29 15 64 24 64 4 0 10 14 13 30 11 54 13 62 23 68 11 7 25
36 30 60 5 28 39 102 47 102 4 0 7 5 7 10 0 6 14 40 30 75 17 35 30 69 30 75
0 5 5 10 10 10 6 0 10 6 10 13 0 7 17 48 39 90 21 42 36 79 33 82 -3 3 0 5 6
5 9 0 25 31 27 53 0 4 9 18 21 30 21 23 38 56 36 70 -1 4 3 7 8 7 6 0 10 9 10
20 0 11 5 20 11 20 5 0 8 4 4 9 -3 5 2 16 10 24 8 9 15 20 15 25 0 6 3 12 8
14 10 4 42 67 42 83 0 7 7 16 16 19 8 3 12 10 9 16 -3 5 -1 10 4 10 6 0 11 6
11 14 0 7 9 25 20 38 10 14 16 28 13 32 -3 3 1 6 10 6 10 0 17 8 17 19 0 10 7
24 15 31 8 7 15 21 15 31 0 11 5 19 10 19 6 0 10 7 10 15 0 8 5 15 11 15 5 0
7 5 4 10 -3 6 -2 10 3 10 6 0 19 17 30 38 57 110 209 353 231 372 4 3 25 30
49 60 57 75 84 108 104 130 9 10 14 20 12 23 -3 3 6 14 20 25 14 10 23 21 21
24 -3 3 8 19 25 36 17 18 27 32 23 32 -4 0 2 8 13 19 30 28 59 66 62 80 3 13
41 50 52 51 3 0 6 8 7 18 1 17 25 47 116 145 26 28 47 54 47 57 0 3 -239 5
-531 5 l-531 0 -24 -27z"/>
<path d="M77630 32433 c0 -10 74 -103 81 -103 5 0 9 -5 9 -12 0 -7 11 -22 23
-33 13 -11 30 -31 37 -45 7 -14 21 -31 31 -38 10 -7 16 -21 14 -33 -3 -12 0
-19 7 -17 13 5 68 -53 68 -70 0 -5 13 -20 30 -33 16 -13 30 -32 30 -41 0 -9
13 -26 30 -38 17 -12 27 -27 24 -35 -3 -7 4 -20 15 -27 12 -7 21 -19 21 -26 0
-7 5 -10 10 -7 6 3 10 -1 10 -11 0 -9 10 -25 21 -35 12 -10 19 -25 16 -33 -4
-9 1 -17 13 -21 18 -6 57 -55 44 -55 -4 0 3 -9 15 -19 13 -11 20 -25 16 -30
-3 -6 1 -11 9 -11 9 0 16 -7 16 -15 0 -8 5 -15 10 -15 6 0 10 -7 10 -15 0 -9
7 -18 15 -21 8 -4 15 -12 15 -18 0 -7 8 -21 18 -32 9 -11 22 -27 27 -36 6 -9
49 -74 96 -144 77 -116 206 -325 223 -364 3 -8 18 -35 32 -60 53 -92 244 -480
245 -497 1 -5 7 -19 15 -33 8 -14 18 -36 24 -50 5 -14 14 -32 19 -40 5 -8 17
-35 26 -60 26 -67 39 -94 52 -108 7 -7 10 -19 7 -26 -3 -8 -1 -17 5 -21 6 -3
11 -15 11 -26 0 -10 4 -19 9 -19 5 0 11 -18 15 -40 3 -23 13 -43 21 -46 8 -4
15 -18 15 -33 0 -15 7 -36 15 -48 8 -12 16 -29 18 -40 2 -10 11 -35 20 -57 9
-21 17 -45 17 -52 0 -8 5 -14 10 -14 6 0 10 -13 10 -30 0 -16 4 -30 8 -30 5 0
9 -6 10 -12 3 -37 20 -83 29 -81 6 1 10 -8 9 -20 -1 -12 2 -24 6 -27 3 -3 8
-17 10 -32 2 -15 7 -30 11 -34 4 -4 7 -16 7 -26 0 -10 8 -37 19 -61 10 -23 27
-69 36 -102 10 -33 37 -121 62 -195 24 -74 45 -144 48 -155 2 -11 10 -45 18
-75 9 -30 18 -68 21 -85 8 -47 15 -83 38 -190 11 -55 22 -113 24 -130 9 -83
18 -131 26 -142 5 -6 8 -20 7 -30 -2 -10 1 -36 6 -58 4 -22 7 -48 6 -57 -1
-10 4 -32 13 -50 8 -18 17 -58 20 -88 10 -85 14 -115 16 -115 5 0 20 -157 25
-264 2 -46 9 -89 15 -95 5 -5 10 -33 10 -62 0 -28 4 -73 9 -100 5 -27 12 -83
16 -124 4 -41 9 -88 11 -105 2 -16 6 -61 9 -100 3 -38 7 -90 10 -115 31 -290
24 -1026 -12 -1285 -3 -22 -6 -67 -8 -100 -1 -33 -5 -67 -8 -75 -6 -14 -9 -62
-21 -317 -2 -44 -6 -86 -10 -91 -8 -14 -18 -90 -17 -135 0 -21 -3 -36 -8 -33
-5 3 -9 -27 -10 -66 -1 -40 -5 -75 -10 -78 -5 -3 -8 -29 -7 -58 1 -29 -2 -56
-6 -58 -4 -3 -8 -32 -8 -64 0 -32 -4 -60 -9 -62 -8 -3 -13 -30 -27 -148 -3
-25 -10 -71 -15 -103 -6 -32 -12 -72 -14 -90 -6 -39 -22 -112 -25 -112 -1 0
-3 -9 -4 -20 -2 -11 -11 -49 -21 -85 -20 -78 -25 -97 -32 -130 -3 -14 -11 -40
-19 -58 -8 -18 -12 -36 -9 -41 3 -5 1 -12 -5 -16 -5 -3 -10 -19 -10 -35 0 -16
-5 -32 -11 -35 -6 -4 -9 -19 -8 -33 2 -15 -3 -37 -9 -49 -7 -13 -10 -23 -6
-23 4 0 -1 -9 -10 -19 -11 -12 -16 -31 -14 -48 2 -17 -2 -27 -9 -26 -6 2 -12
-5 -12 -15 0 -39 -14 -113 -22 -118 -5 -3 -9 -19 -9 -35 0 -18 -4 -28 -10 -24
-10 6 -14 -7 -11 -32 1 -7 -3 -13 -9 -13 -5 0 -10 -11 -10 -25 0 -14 -4 -33
-9 -43 -13 -23 -25 -73 -22 -94 1 -11 -4 -18 -13 -18 -10 0 -16 -9 -16 -25 0
-14 -5 -25 -11 -25 -5 0 -8 -4 -4 -10 8 -13 -25 -110 -44 -129 -9 -9 -15 -25
-13 -35 2 -10 -1 -23 -7 -29 -6 -6 -11 -21 -11 -34 0 -13 -5 -23 -11 -23 -6 0
-9 -6 -7 -12 3 -7 -1 -24 -8 -37 -7 -14 -10 -29 -7 -34 4 -6 0 -8 -8 -5 -10 4
-15 -2 -17 -18 -1 -14 -9 -38 -17 -54 -8 -16 -15 -38 -15 -50 0 -11 -4 -20
-10 -20 -5 0 -10 -7 -10 -15 0 -8 -4 -15 -10 -15 -5 0 -10 -11 -10 -24 0 -14
-4 -28 -10 -31 -5 -3 -10 -15 -10 -26 0 -10 -4 -19 -10 -19 -5 0 -7 -7 -4 -15
4 -8 1 -15 -5 -15 -6 0 -11 -9 -11 -19 0 -10 -7 -21 -15 -25 -8 -3 -14 -9 -13
-13 3 -15 -15 -68 -32 -93 -10 -14 -16 -33 -14 -43 2 -13 -2 -17 -12 -13 -9 3
-14 -1 -14 -14 0 -11 -5 -20 -10 -20 -6 0 -10 -6 -9 -12 2 -20 -12 -58 -22
-58 -5 0 -9 -9 -9 -20 0 -11 -3 -20 -7 -20 -9 0 -33 -49 -33 -67 0 -7 -4 -13
-10 -13 -5 0 -12 -15 -16 -34 -3 -19 -12 -37 -20 -40 -8 -3 -14 -12 -14 -21 0
-8 -5 -15 -11 -15 -5 0 -8 -4 -4 -9 3 -5 1 -12 -5 -16 -5 -3 -10 -15 -10 -26
0 -10 -4 -19 -10 -19 -5 0 -10 -7 -10 -16 0 -8 -4 -12 -10 -9 -5 3 -10 -3 -10
-14 0 -12 -4 -21 -10 -21 -5 0 -10 -9 -10 -20 0 -11 -5 -20 -11 -20 -5 0 -8
-4 -4 -9 3 -5 1 -12 -5 -16 -5 -3 -10 -12 -10 -20 0 -7 -13 -27 -30 -45 -16
-18 -30 -40 -30 -50 0 -10 -7 -23 -15 -30 -8 -7 -15 -21 -15 -31 0 -11 -7 -19
-16 -19 -9 0 -14 -6 -11 -13 3 -8 -3 -20 -14 -28 -10 -7 -19 -21 -19 -31 0
-10 -5 -18 -10 -18 -6 0 -9 -6 -8 -12 2 -7 -3 -12 -9 -10 -7 1 -13 -7 -13 -18
0 -11 -5 -20 -11 -20 -6 0 -9 -6 -6 -13 3 -8 -3 -20 -14 -28 -10 -7 -19 -21
-19 -31 0 -10 -5 -18 -10 -18 -6 0 -14 -10 -19 -23 -5 -13 -30 -56 -55 -95
-25 -39 -46 -75 -46 -80 0 -6 -4 -12 -8 -14 -5 -1 -27 -30 -49 -63 -23 -34
-48 -67 -57 -74 -9 -7 -16 -17 -16 -22 0 -4 -10 -19 -22 -32 -56 -60 -74 -84
-71 -94 3 -7 -10 -22 -26 -34 -17 -13 -31 -30 -31 -39 0 -8 -9 -22 -19 -30
-11 -7 -18 -17 -15 -22 3 -4 -2 -8 -10 -8 -9 0 -16 -7 -16 -15 0 -16 -54 -75
-69 -75 -5 0 -8 -8 -7 -17 3 -19 -15 -44 -26 -37 -4 2 -9 -5 -13 -15 -3 -11
-19 -34 -36 -52 -16 -17 -29 -34 -29 -38 0 -3 -21 -28 -45 -56 -25 -27 -45
-53 -45 -56 0 -4 239 -7 531 -7 475 0 533 2 550 16 10 9 19 22 19 29 0 7 4 13
9 13 13 0 141 128 141 140 0 6 6 10 13 10 24 0 316 302 551 569 70 80 236 286
295 366 24 33 48 62 53 63 4 2 8 10 8 17 0 7 4 15 8 17 13 5 125 164 322 458
66 98 250 399 345 565 47 80 121 222 178 335 28 58 55 107 59 108 5 2 8 8 8
14 0 5 20 51 44 101 24 51 56 119 71 152 15 33 33 72 39 86 7 14 12 33 10 42
-1 9 2 17 7 17 8 0 40 53 39 65 -1 16 14 55 21 55 5 0 9 14 9 30 0 17 4 30 9
30 5 0 15 20 22 45 7 25 16 45 20 45 4 0 9 18 13 41 4 23 13 48 21 56 8 8 15
23 15 33 0 10 4 21 10 25 5 3 7 12 4 19 -3 8 -1 17 5 21 6 3 11 15 11 26 0 10
5 19 10 19 6 0 10 14 10 30 0 17 5 30 10 30 6 0 10 9 10 20 0 11 4 28 9 38 12
22 25 73 22 90 -1 6 2 12 7 12 5 0 9 17 10 37 1 21 6 39 12 41 5 2 10 17 10
33 0 18 5 29 14 29 9 0 12 8 8 25 -2 15 0 25 7 25 6 0 11 15 11 33 0 19 3 37
7 41 4 4 8 17 8 29 2 25 13 71 26 107 10 27 17 58 24 105 3 17 7 41 10 55 3
14 9 50 15 80 6 30 12 64 14 75 2 11 7 40 11 65 9 54 12 70 25 135 5 28 12 62
15 78 3 15 7 39 10 55 3 15 13 56 21 91 32 132 44 196 50 286 3 39 8 77 11 85
4 8 7 49 8 90 3 106 4 112 15 105 7 -4 10 48 10 149 0 86 4 156 8 156 11 0 10
546 0 556 -5 4 -8 51 -8 104 0 54 -5 122 -11 151 -6 30 -12 92 -14 139 -2 47
-7 96 -10 110 -3 14 -6 58 -5 98 0 42 -3 72 -9 72 -6 0 -10 15 -9 33 0 17 -2
46 -6 62 -12 57 -17 80 -21 100 -2 11 -8 45 -15 75 -6 30 -13 69 -15 85 -3 17
-7 41 -10 55 -2 14 -14 70 -24 125 -11 55 -23 114 -26 130 -8 37 -25 123 -30
150 -16 88 -25 120 -34 123 -6 2 -11 19 -11 38 0 19 -4 34 -9 34 -5 0 -8 11
-5 24 2 14 0 28 -6 31 -5 3 -10 22 -10 41 0 19 -5 34 -11 34 -7 0 -10 12 -7
30 3 20 0 30 -9 30 -8 0 -13 12 -13 30 0 17 -4 30 -10 30 -5 0 -10 13 -10 29
0 17 -4 32 -9 35 -4 3 -7 17 -6 31 2 14 -1 25 -6 25 -5 0 -9 14 -9 30 0 17 -4
30 -10 30 -5 0 -10 11 -10 24 0 14 -4 28 -10 31 -5 3 -10 17 -10 31 0 14 -4
22 -10 19 -6 -4 -10 5 -10 19 0 14 -4 26 -9 26 -4 0 -7 11 -6 25 2 14 -1 27
-6 31 -5 3 -9 14 -9 25 0 11 -6 22 -14 25 -7 3 -13 17 -13 32 0 14 -5 28 -11
30 -6 2 -9 9 -6 17 3 7 1 16 -5 20 -6 3 -11 15 -11 26 0 10 -5 19 -11 19 -5 0
-8 4 -5 9 3 4 -1 17 -9 27 -8 10 -15 32 -15 47 0 16 -4 26 -10 22 -5 -3 -10 3
-10 14 0 11 -5 23 -10 26 -6 4 -8 10 -5 15 8 12 -22 70 -36 70 -6 0 -8 9 -4
19 3 11 1 22 -5 26 -5 3 -10 15 -10 26 0 10 -4 19 -9 19 -5 0 -11 13 -14 29
-3 16 -13 36 -22 44 -8 9 -15 25 -15 36 0 12 -4 21 -10 21 -5 0 -10 7 -10 15
0 17 -41 99 -51 103 -5 2 -5 10 -2 18 3 8 0 14 -6 14 -6 0 -11 6 -11 13 0 20
-137 287 -144 280 -3 -4 -6 1 -6 11 0 20 -38 98 -52 107 -5 3 -9 9 -8 13 1 8
-134 249 -217 384 -35 57 -63 106 -63 108 0 3 -5 10 -10 17 -24 27 -89 133
-90 145 0 6 -4 12 -8 12 -4 0 -23 26 -42 58 -19 31 -38 59 -42 60 -5 2 -8 10
-8 17 0 8 -10 21 -22 29 -12 9 -19 16 -15 16 7 0 -28 57 -43 70 -3 3 -23 32
-44 65 -44 68 -110 158 -143 195 -13 14 -23 29 -23 33 0 5 -13 22 -30 37 -16
15 -30 33 -30 38 0 6 -19 30 -42 54 -24 24 -44 50 -46 58 -2 8 -9 18 -15 22
-33 20 -47 34 -47 44 0 7 -7 14 -15 18 -8 3 -15 15 -15 26 0 11 -3 19 -7 18
-12 -3 -123 114 -123 129 0 7 -4 13 -10 13 -5 0 -10 7 -10 15 0 8 -4 15 -10
15 -12 0 -60 48 -60 60 0 6 -5 10 -11 10 -11 0 -64 49 -67 63 -1 4 -4 6 -6 5
-5 -4 -66 65 -66 75 0 4 -4 7 -10 7 -10 0 -77 62 -72 67 1 2 -1 4 -5 6 -13 4
-63 59 -63 68 0 5 -4 9 -10 9 -10 0 -77 62 -72 67 1 2 -1 3 -4 2 -3 0 -13 8
-22 19 -9 10 -27 22 -39 26 -13 4 -23 13 -23 19 -1 7 -19 26 -40 42 -22 17
-42 38 -45 47 -3 9 -16 20 -28 24 -19 7 -1067 13 -1067 7z"/>
<path d="M70190 29403 c0 -9 -19 -13 -70 -13 -38 0 -70 -4 -70 -9 0 -5 -17 -8
-37 -7 -21 1 -41 -2 -44 -6 -3 -5 -27 -9 -52 -10 -26 0 -44 -4 -41 -9 3 -5 -7
-9 -21 -9 -15 0 -33 -6 -41 -14 -7 -8 -23 -12 -34 -9 -11 3 -20 0 -20 -6 0 -6
-11 -11 -25 -11 -14 0 -25 -4 -25 -9 0 -4 -10 -8 -22 -8 -31 0 -78 -20 -78
-34 0 -7 -10 -9 -24 -7 -16 3 -27 0 -30 -9 -3 -7 -9 -12 -13 -11 -12 3 -93
-36 -93 -44 0 -5 -5 -8 -11 -8 -6 0 -24 -9 -40 -21 -16 -11 -29 -18 -29 -14 0
8 -54 -27 -63 -42 -4 -7 -17 -13 -28 -13 -11 0 -18 -4 -15 -9 5 -8 -29 -25
-46 -22 -5 1 -8 -4 -8 -10 0 -15 -28 -41 -38 -35 -12 7 -60 -37 -55 -52 3 -8
-1 -10 -12 -6 -11 5 -25 -2 -41 -20 -14 -14 -29 -26 -34 -26 -6 0 -10 -7 -10
-15 0 -8 -7 -15 -16 -15 -8 0 -42 -27 -76 -60 -33 -33 -64 -60 -69 -60 -5 0
-9 -6 -9 -13 0 -15 -35 -47 -51 -47 -15 0 -59 -51 -59 -68 0 -7 -3 -11 -7 -9
-5 2 -18 -7 -30 -20 -12 -13 -20 -23 -16 -23 3 0 -4 -9 -17 -20 -13 -11 -26
-20 -29 -20 -4 0 -14 -13 -24 -29 -20 -34 -56 -48 -58 -23 -1 10 -2 197 -3
417 l-1 400 -787 3 -788 2 0 -3040 0 -3039 788 2 787 2 0 2022 c0 2008 0 2022
20 2041 32 31 55 61 55 72 0 6 5 10 10 10 6 0 10 7 10 15 0 8 4 15 10 15 14 0
50 42 44 52 -3 4 2 15 10 24 9 8 16 12 16 9 0 -4 14 7 30 25 17 18 30 36 30
41 0 5 7 9 15 9 8 0 15 7 15 16 0 17 143 164 160 164 5 0 7 7 4 15 -4 8 -2 15
2 15 5 0 29 18 53 40 24 22 40 40 35 40 -5 0 5 9 21 19 17 11 46 33 65 51 80
72 319 214 388 231 4 1 12 3 17 5 15 5 155 43 158 43 1 -1 13 2 27 5 14 3 54
7 90 10 36 3 95 8 133 12 47 5 67 3 67 -5 0 -7 25 -11 73 -11 40 0 77 -4 83
-10 5 -5 26 -10 47 -12 20 -1 37 -6 37 -10 0 -4 14 -8 30 -8 17 0 30 -5 30
-11 0 -6 6 -9 14 -6 8 3 22 0 32 -8 10 -7 24 -11 31 -8 7 3 13 -2 13 -10 0 -8
13 -17 32 -21 17 -3 38 -15 45 -26 8 -11 18 -18 23 -15 5 3 22 -8 38 -25 17
-16 35 -30 41 -30 11 0 148 -134 186 -182 33 -41 115 -182 115 -197 0 -5 7
-22 15 -37 8 -16 22 -59 32 -96 10 -38 21 -68 25 -68 4 0 8 -18 8 -40 0 -22 4
-40 9 -40 5 0 8 -18 6 -40 -2 -22 1 -40 6 -40 5 0 9 -31 9 -70 0 -38 4 -70 9
-70 4 0 9 -89 9 -197 1 -109 3 -213 5 -230 2 -18 -1 -33 -6 -33 -4 0 -5 -5 -1
-11 9 -16 11 -110 2 -116 -5 -2 -4 -12 2 -22 5 -10 7 -21 3 -24 -4 -5 -8
-3129 -4 -3254 l1 -22 798 0 799 0 0 2022 c0 1112 3 2035 7 2050 17 71 162
243 334 398 34 31 62 62 62 68 0 7 4 9 10 6 5 -3 15 3 22 15 7 11 18 20 24 20
7 0 32 20 57 45 26 25 51 45 57 45 6 0 23 14 37 30 13 17 33 30 43 30 10 0 22
9 25 20 3 11 14 20 24 20 10 0 24 7 31 15 7 8 17 15 23 15 5 0 18 9 28 21 9
11 21 21 26 21 15 1 58 22 64 32 4 5 12 5 18 2 6 -4 14 0 17 8 3 9 9 14 14 11
4 -2 16 2 26 10 10 8 27 15 37 15 9 0 17 4 17 10 0 5 3 9 8 8 4 -2 32 7 62 19
137 54 289 72 403 47 34 -7 86 -13 115 -14 33 0 51 -4 47 -10 -6 -10 19 -14
63 -10 12 1 22 -3 22 -9 0 -6 14 -11 30 -11 17 0 30 -4 30 -10 0 -5 3 -9 8 -8
20 4 82 -16 82 -27 0 -12 54 -32 73 -27 5 2 6 -2 2 -8 -3 -5 -2 -10 3 -10 5 0
39 -20 75 -45 140 -95 246 -234 316 -412 36 -91 61 -167 67 -203 2 -8 5 -24 8
-35 2 -11 5 -32 5 -47 1 -15 8 -33 16 -42 10 -10 15 -32 14 -66 -1 -29 2 -55
7 -58 5 -4 9 -54 8 -112 0 -58 3 -108 8 -111 4 -3 8 -843 8 -1867 l0 -1861
796 0 795 0 -4 1977 c-3 1087 -7 2006 -11 2042 -3 36 -6 84 -6 108 0 24 -2 48
-6 53 -3 5 -7 38 -10 72 -2 34 -6 72 -8 84 -3 12 -8 50 -11 85 -4 34 -11 68
-16 74 -5 6 -6 13 -4 16 3 3 -1 36 -10 74 -8 38 -16 78 -18 89 -7 39 -29 110
-38 121 -5 7 -9 16 -8 20 3 18 -14 74 -22 74 -5 0 -9 14 -9 30 0 17 -5 30 -11
30 -5 0 -8 4 -4 9 3 5 0 16 -7 23 -21 22 -35 51 -43 86 -3 18 -11 32 -16 32
-5 0 -9 7 -9 15 0 9 -9 25 -20 37 -11 12 -20 27 -20 34 0 21 -41 84 -51 78 -5
-3 -9 4 -9 15 0 11 -7 26 -15 35 -8 8 -15 21 -15 28 0 7 -14 24 -30 37 -17 13
-30 29 -30 37 0 8 -4 14 -10 14 -5 0 -10 7 -10 15 0 9 -8 19 -17 22 -22 9 -37
24 -41 43 -4 19 -193 200 -208 200 -7 0 -14 6 -17 13 -4 12 -138 111 -186 138
-14 8 -34 22 -44 31 -20 17 -315 167 -339 172 -17 4 -47 15 -75 28 -11 6 -26
7 -31 4 -6 -4 -15 2 -21 11 -5 10 -12 17 -15 16 -17 -8 -66 -2 -61 7 4 6 -10
10 -34 10 -23 0 -41 4 -41 8 0 5 -18 8 -40 7 -23 -1 -43 2 -46 7 -3 4 -34 8
-70 8 -45 0 -64 4 -64 13 0 10 -66 12 -305 13 -233 0 -305 -3 -305 -12 0 -11
-40 -17 -182 -26 -21 -1 -38 -7 -38 -13 0 -7 -14 -9 -34 -7 -18 2 -37 -1 -40
-7 -4 -6 -22 -11 -41 -11 -18 0 -35 -5 -37 -11 -2 -6 -16 -11 -31 -11 -15 0
-27 -4 -27 -9 0 -5 -13 -9 -30 -9 -16 0 -30 -5 -30 -11 0 -5 -8 -9 -17 -8 -25
3 -73 -18 -73 -32 0 -7 -9 -9 -21 -6 -12 3 -22 0 -26 -9 -3 -8 -9 -12 -13 -9
-7 4 -86 -31 -100 -45 -3 -3 -18 -12 -35 -20 -48 -23 -150 -84 -153 -92 -2 -5
-10 -8 -18 -8 -8 0 -22 -8 -32 -17 -22 -21 -46 -37 -89 -59 -18 -9 -35 -24
-38 -35 -4 -10 -15 -19 -26 -19 -10 0 -19 -4 -19 -9 0 -5 -9 -12 -20 -16 -11
-3 -19 -11 -17 -18 1 -6 -7 -13 -18 -15 -11 -2 -44 -30 -74 -61 -30 -31 -57
-56 -60 -55 -16 2 -41 -10 -41 -21 0 -15 -56 -66 -64 -58 -3 4 -6 0 -6 -9 0
-16 -53 -68 -70 -68 -5 0 -10 -4 -10 -10 0 -13 -66 -80 -79 -80 -6 0 -11 -7
-11 -15 0 -9 -7 -18 -15 -21 -8 -4 -15 -16 -15 -28 0 -17 -2 -18 -10 -6 -8 13
-10 12 -10 -3 0 -18 -29 -56 -31 -40 0 4 -4 -2 -9 -14 -5 -13 -15 -23 -22 -23
-12 0 -68 -70 -68 -84 0 -11 -40 -46 -53 -46 -18 0 -90 111 -137 213 -23 48
-46 87 -51 87 -6 0 -8 4 -5 8 3 5 -4 18 -14 30 -11 12 -20 26 -20 32 0 6 -7
18 -15 26 -8 9 -15 13 -15 9 0 -3 -6 0 -14 7 -8 7 -13 20 -11 28 2 8 -3 21
-11 28 -8 7 -14 10 -14 7 0 -8 -30 22 -33 32 -1 4 -12 18 -24 29 -13 12 -23
25 -23 29 0 11 -93 104 -105 105 -5 0 -20 12 -33 28 -13 15 -26 26 -28 25 -2
-2 -5 0 -6 5 -2 10 -44 42 -56 42 -6 0 -22 14 -35 30 -14 17 -35 30 -47 30
-12 0 -19 4 -15 9 3 5 -3 12 -12 15 -10 3 -30 17 -44 30 -15 14 -29 22 -33 19
-3 -3 -8 2 -12 11 -3 9 -10 14 -15 11 -11 -8 -49 17 -49 32 0 7 -7 10 -15 7
-8 -4 -15 -1 -15 5 0 6 -9 11 -19 11 -11 0 -23 5 -26 10 -4 6 -11 8 -16 5 -5
-4 -12 0 -15 8 -3 9 -13 13 -26 9 -13 -3 -24 1 -30 12 -5 9 -18 16 -28 16 -11
0 -20 4 -20 8 0 5 -6 9 -12 10 -7 0 -31 6 -53 12 -22 6 -51 13 -64 15 -14 2
-28 10 -32 18 -5 9 -18 12 -33 10 -13 -3 -27 0 -30 6 -4 6 -25 11 -47 11 -21
0 -39 4 -39 8 0 5 -18 8 -40 7 -23 -1 -43 2 -46 7 -3 4 -31 8 -63 8 -32 0 -62
5 -69 12 -19 19 -612 20 -612 1z"/>
</g>
</svg>
